<?xml version="1.0" encoding="utf-8"?>
<!-- Generator: Adobe Illustrator 26.2.1, SVG Export Plug-In . SVG Version: 6.00 Build 0)  -->
<svg version="1.1" id="Layer_1" xmlns="http://www.w3.org/2000/svg" xmlns:xlink="http://www.w3.org/1999/xlink" x="0px" y="0px"
	 viewBox="0 0 218 301" style="enable-background:new 0 0 218 301;" xml:space="preserve">
<style type="text/css">
	.st0{display:none;}
	.st1{display:inline;fill:none;stroke:#000000;stroke-width:2;stroke-linecap:round;stroke-linejoin:round;stroke-miterlimit:10;}
	.st2{display:inline;}
	.st3{display:inline;fill:#0F0F0F;}
	.st4{display:none;fill:none;stroke:#000000;stroke-width:3;stroke-linecap:round;stroke-linejoin:round;stroke-miterlimit:10;}
	.st5{display:inline;fill:none;stroke:#000000;stroke-width:3;stroke-linecap:round;stroke-linejoin:round;stroke-miterlimit:10;}
	.st6{display:inline;fill:none;stroke:#000000;stroke-width:4;stroke-linecap:round;stroke-linejoin:round;stroke-miterlimit:10;}
	.st7{fill:#0F0F0F;}
	.st8{fill:none;stroke:#0F0F0F;stroke-width:4;stroke-linecap:round;stroke-linejoin:round;stroke-miterlimit:10;}
</style>
<g class="st0">
	<path class="st1" d="M98.55,362.32c1.54,7.06,13.27,13.37,13.27,13.37c3.98-15.66-5.37-29.01-5.37-29.01
		c-6.27,0.76-13.02,7.6-13.02,7.6c-12.99-9.58-26.64,0-26.64,0s-5.97-6.84-12.24-7.6c0,0-9.35,13.36-5.37,29.01
		c0,0,5.1-2.75,9.02-6.64c2.02-2.01,3.73-4.33,4.25-6.73"/>
	<circle class="st2" cx="71.06" cy="366.42" r="1.57"/>
	<circle class="st2" cx="90.65" cy="366.42" r="1.57"/>
	<ellipse class="st2" cx="81.27" cy="369.56" rx="3.15" ry="1.57"/>
	<path class="st1" d="M60.21,366.78c0,0-5.99,20.06,21.04,19.21s19.54-19.21,19.54-19.21"/>
	<path class="st1" d="M90.87,374.39c-5.49,6.27-10.19,0-10.19,0h-0.22c-5.49,6.27-9.4,0-9.4,0"/>
	<line class="st1" x1="66.31" y1="363.68" x2="69.12" y2="361.18"/>
	<line class="st1" x1="94.9" y1="363.88" x2="92.08" y2="361.38"/>
	<path class="st2" d="M76.31,377.18c0,0,4.15,5.98,8.87-0.04L76.31,377.18z"/>
</g>
<path class="st0" d="M87,175.94"/>
<g>
	<g class="st0">
		<path class="st3" d="M19.56,223.84c-0.32,0-0.57-0.09-0.74-0.27c-0.17-0.18-0.26-0.43-0.26-0.76v-6.58h-2.29
			c-0.28,0-0.49-0.07-0.64-0.22c-0.15-0.15-0.22-0.35-0.22-0.62c0-0.26,0.07-0.46,0.22-0.6c0.15-0.14,0.36-0.21,0.64-0.21h6.6
			c0.27,0,0.48,0.07,0.62,0.21c0.15,0.14,0.22,0.34,0.22,0.6c0,0.27-0.07,0.48-0.22,0.62c-0.15,0.15-0.36,0.22-0.62,0.22h-2.3v6.58
			c0,0.33-0.08,0.58-0.25,0.76C20.16,223.75,19.9,223.84,19.56,223.84z"/>
		<path class="st3" d="M26.04,223.84c-0.3,0-0.54-0.08-0.71-0.25c-0.17-0.17-0.26-0.41-0.26-0.73v-7.4c0-0.33,0.09-0.58,0.26-0.74
			s0.41-0.25,0.71-0.25c0.32,0,0.57,0.08,0.73,0.25s0.25,0.41,0.25,0.74v3.11h-0.18c0.19-0.43,0.49-0.77,0.88-0.99
			s0.85-0.34,1.34-0.34c0.52,0,0.94,0.1,1.27,0.29c0.33,0.19,0.57,0.49,0.73,0.88c0.16,0.4,0.25,0.91,0.25,1.52v2.94
			c0,0.32-0.08,0.57-0.25,0.73s-0.41,0.25-0.73,0.25c-0.3,0-0.54-0.08-0.72-0.25c-0.18-0.17-0.27-0.41-0.27-0.73v-2.86
			c0-0.44-0.08-0.76-0.24-0.96c-0.16-0.19-0.4-0.29-0.72-0.29c-0.42,0-0.75,0.13-0.99,0.39c-0.25,0.26-0.37,0.61-0.37,1.04v2.68
			C27.03,223.51,26.7,223.84,26.04,223.84z"/>
		<path class="st3" d="M35.61,223.87c-0.49,0-0.91-0.09-1.27-0.27c-0.36-0.18-0.65-0.42-0.86-0.73s-0.31-0.66-0.31-1.06
			c0-0.47,0.12-0.84,0.36-1.1c0.24-0.27,0.63-0.46,1.18-0.58c0.54-0.12,1.26-0.18,2.16-0.18h0.69v1.01h-0.68
			c-0.45,0-0.81,0.02-1.07,0.07s-0.46,0.13-0.58,0.25c-0.12,0.12-0.18,0.27-0.18,0.46c0,0.23,0.08,0.43,0.25,0.58
			c0.17,0.16,0.41,0.23,0.72,0.23c0.25,0,0.48-0.06,0.68-0.17s0.35-0.27,0.47-0.47s0.17-0.44,0.17-0.72v-1.48
			c0-0.38-0.09-0.65-0.26-0.81s-0.47-0.24-0.9-0.24c-0.23,0-0.47,0.03-0.75,0.08c-0.27,0.05-0.57,0.15-0.9,0.29
			c-0.2,0.08-0.37,0.1-0.51,0.05s-0.25-0.13-0.33-0.25c-0.08-0.13-0.12-0.27-0.12-0.42c0-0.16,0.04-0.3,0.13-0.44
			s0.23-0.24,0.44-0.31c0.4-0.16,0.78-0.27,1.14-0.33s0.69-0.1,0.98-0.1c0.67,0,1.22,0.1,1.66,0.29c0.44,0.2,0.76,0.5,0.98,0.9
			s0.32,0.92,0.32,1.55v2.89c0,0.32-0.08,0.57-0.24,0.73c-0.16,0.17-0.38,0.25-0.67,0.25c-0.29,0-0.52-0.08-0.68-0.25
			s-0.24-0.41-0.24-0.73v-0.48l0.09,0.09c-0.05,0.29-0.16,0.53-0.33,0.74s-0.38,0.37-0.64,0.49
			C36.24,223.81,35.94,223.87,35.61,223.87z"/>
		<path class="st3" d="M42.3,223.84c-0.3,0-0.54-0.08-0.71-0.25s-0.26-0.41-0.26-0.73v-4.62c0-0.32,0.08-0.57,0.25-0.73
			s0.41-0.25,0.72-0.25c0.3,0,0.54,0.08,0.7,0.25s0.25,0.41,0.25,0.73v0.74l-0.14-0.42c0.19-0.43,0.49-0.77,0.88-0.99
			s0.85-0.34,1.34-0.34c0.52,0,0.94,0.1,1.27,0.29c0.33,0.2,0.57,0.49,0.73,0.89s0.25,0.9,0.25,1.51v2.94
			c0,0.32-0.08,0.57-0.25,0.73s-0.41,0.25-0.73,0.25c-0.3,0-0.54-0.08-0.72-0.25s-0.27-0.41-0.27-0.73V220
			c0-0.44-0.08-0.76-0.24-0.96c-0.16-0.19-0.4-0.29-0.72-0.29c-0.42,0-0.75,0.13-0.99,0.39c-0.25,0.26-0.37,0.61-0.37,1.04v2.68
			C43.29,223.51,42.96,223.84,42.3,223.84z"/>
		<path class="st3" d="M50.67,223.84c-0.3,0-0.54-0.08-0.71-0.25s-0.26-0.41-0.26-0.73v-7.4c0-0.33,0.09-0.58,0.26-0.74
			s0.41-0.25,0.71-0.25c0.32,0,0.57,0.08,0.73,0.25s0.25,0.41,0.25,0.74v4.55h0.03l1.88-2.09c0.19-0.23,0.36-0.39,0.52-0.5
			s0.37-0.16,0.65-0.16s0.49,0.07,0.62,0.21s0.21,0.31,0.21,0.5s-0.08,0.4-0.25,0.6l-1.99,2.2v-0.74l2.21,2.55
			c0.16,0.21,0.24,0.41,0.21,0.61c-0.02,0.2-0.11,0.36-0.27,0.48s-0.36,0.18-0.59,0.18c-0.29,0-0.53-0.05-0.71-0.16
			s-0.36-0.27-0.54-0.5l-1.96-2.2h-0.03v1.87C51.66,223.51,51.33,223.84,50.67,223.84z"/>
		<path class="st3" d="M63.58,226.18c-0.23,0-0.42-0.06-0.56-0.18s-0.23-0.27-0.26-0.47c-0.03-0.19,0-0.4,0.1-0.62l0.87-1.91v0.79
			l-2.3-5.28c-0.09-0.23-0.11-0.44-0.08-0.63c0.03-0.2,0.13-0.35,0.29-0.47s0.38-0.18,0.66-0.18c0.24,0,0.44,0.05,0.58,0.16
			c0.14,0.1,0.27,0.32,0.37,0.64l1.55,3.87h-0.4l1.57-3.9c0.12-0.29,0.26-0.5,0.41-0.6c0.15-0.11,0.36-0.16,0.62-0.16
			c0.23,0,0.4,0.06,0.54,0.18c0.13,0.12,0.22,0.27,0.25,0.46s-0.01,0.4-0.11,0.62l-3.05,6.93c-0.13,0.29-0.28,0.49-0.44,0.59
			C64.03,226.13,63.82,226.18,63.58,226.18z"/>
		<path class="st3" d="M72.47,223.87c-0.68,0-1.28-0.13-1.78-0.4c-0.5-0.27-0.9-0.65-1.18-1.15s-0.42-1.09-0.42-1.77
			c0-0.51,0.08-0.97,0.23-1.38c0.16-0.41,0.38-0.76,0.68-1.05c0.3-0.29,0.66-0.51,1.08-0.66c0.42-0.15,0.88-0.23,1.38-0.23
			c0.68,0,1.28,0.13,1.79,0.4c0.51,0.27,0.9,0.65,1.18,1.15s0.42,1.09,0.42,1.76c0,0.51-0.08,0.98-0.24,1.39
			c-0.16,0.42-0.39,0.77-0.68,1.05c-0.29,0.29-0.65,0.5-1.07,0.66C73.46,223.79,72.99,223.87,72.47,223.87z M72.47,222.41
			c0.29,0,0.53-0.07,0.74-0.2s0.37-0.34,0.49-0.62c0.12-0.28,0.18-0.63,0.18-1.05c0-0.63-0.13-1.1-0.39-1.4
			c-0.26-0.3-0.6-0.45-1.03-0.45c-0.28,0-0.52,0.06-0.73,0.19s-0.38,0.33-0.49,0.61c-0.12,0.28-0.18,0.62-0.18,1.04
			c0,0.64,0.13,1.11,0.39,1.42C71.72,222.26,72.06,222.41,72.47,222.41z"/>
		<path class="st3" d="M80.04,223.87c-0.54,0-0.98-0.1-1.34-0.3c-0.36-0.2-0.62-0.5-0.79-0.89s-0.25-0.89-0.25-1.49v-2.95
			c0-0.33,0.08-0.58,0.25-0.74s0.41-0.25,0.72-0.25s0.55,0.08,0.73,0.25c0.17,0.17,0.26,0.41,0.26,0.74v2.99
			c0,0.37,0.08,0.65,0.23,0.84c0.16,0.19,0.4,0.29,0.73,0.29c0.38,0,0.69-0.13,0.93-0.4s0.36-0.61,0.36-1.05v-2.68
			c0-0.33,0.09-0.58,0.26-0.74c0.17-0.16,0.41-0.25,0.71-0.25c0.32,0,0.57,0.08,0.73,0.25c0.17,0.17,0.25,0.41,0.25,0.74v4.62
			c0,0.66-0.32,0.99-0.95,0.99c-0.3,0-0.54-0.08-0.72-0.25s-0.26-0.41-0.26-0.73v-0.88l0.21,0.52c-0.19,0.45-0.46,0.79-0.82,1.03
			C80.94,223.75,80.52,223.87,80.04,223.87z"/>
		<path class="st3" d="M91.71,223.84c-0.32,0-0.57-0.08-0.73-0.25s-0.25-0.41-0.25-0.73v-4.04h-0.47c-0.24,0-0.43-0.06-0.56-0.19
			s-0.2-0.31-0.2-0.54s0.06-0.41,0.2-0.53c0.13-0.12,0.32-0.18,0.56-0.18h1.04l-0.57,0.52v-0.42c0-0.92,0.23-1.61,0.7-2.07
			c0.47-0.46,1.15-0.74,2.04-0.84l0.42-0.03c0.23-0.03,0.4,0,0.53,0.09s0.22,0.2,0.27,0.34c0.05,0.14,0.06,0.28,0.03,0.42
			s-0.09,0.27-0.19,0.38c-0.1,0.11-0.22,0.17-0.36,0.18l-0.18,0.01c-0.47,0.03-0.8,0.15-1,0.33c-0.2,0.19-0.3,0.47-0.3,0.84v0.46
			l-0.23-0.21h1.17c0.24,0,0.43,0.06,0.56,0.18s0.19,0.3,0.19,0.53s-0.06,0.41-0.19,0.54c-0.13,0.13-0.32,0.19-0.56,0.19h-0.94v4.04
			C92.69,223.51,92.36,223.84,91.71,223.84z"/>
		<path class="st3" d="M98.92,223.87c-0.68,0-1.28-0.13-1.78-0.4c-0.5-0.27-0.9-0.65-1.18-1.15s-0.42-1.09-0.42-1.77
			c0-0.51,0.08-0.97,0.23-1.38c0.16-0.41,0.38-0.76,0.68-1.05c0.3-0.29,0.66-0.51,1.08-0.66c0.42-0.15,0.88-0.23,1.38-0.23
			c0.68,0,1.28,0.13,1.79,0.4c0.51,0.27,0.9,0.65,1.18,1.15s0.42,1.09,0.42,1.76c0,0.51-0.08,0.98-0.24,1.39
			c-0.16,0.42-0.39,0.77-0.68,1.05c-0.29,0.29-0.65,0.5-1.07,0.66C99.9,223.79,99.44,223.87,98.92,223.87z M98.92,222.41
			c0.29,0,0.53-0.07,0.74-0.2s0.37-0.34,0.49-0.62c0.12-0.28,0.18-0.63,0.18-1.05c0-0.63-0.13-1.1-0.39-1.4
			c-0.26-0.3-0.6-0.45-1.03-0.45c-0.28,0-0.52,0.06-0.73,0.19s-0.38,0.33-0.49,0.61c-0.12,0.28-0.18,0.62-0.18,1.04
			c0,0.64,0.13,1.11,0.39,1.42C98.16,222.26,98.5,222.41,98.92,222.41z"/>
		<path class="st3" d="M105.14,223.84c-0.33,0-0.58-0.08-0.75-0.25s-0.26-0.41-0.26-0.73v-4.62c0-0.32,0.08-0.57,0.25-0.73
			s0.41-0.25,0.72-0.25c0.3,0,0.54,0.08,0.7,0.25c0.16,0.17,0.25,0.41,0.25,0.73v0.68h-0.13c0.1-0.52,0.32-0.92,0.68-1.21
			c0.36-0.29,0.83-0.45,1.4-0.48c0.21-0.02,0.37,0.04,0.49,0.16c0.12,0.13,0.18,0.34,0.2,0.63c0.01,0.26-0.05,0.47-0.18,0.62
			c-0.13,0.16-0.34,0.25-0.63,0.29l-0.3,0.03c-0.49,0.04-0.86,0.19-1.1,0.43s-0.36,0.59-0.36,1.05v2.42c0,0.32-0.08,0.57-0.25,0.73
			S105.47,223.84,105.14,223.84z"/>
		<path class="st3" d="M116.13,226.18c-0.23,0-0.42-0.06-0.56-0.18s-0.23-0.27-0.26-0.47c-0.03-0.19,0-0.4,0.1-0.62l0.87-1.91v0.79
			l-2.3-5.28c-0.09-0.23-0.11-0.44-0.08-0.63c0.03-0.2,0.13-0.35,0.29-0.47s0.38-0.18,0.66-0.18c0.24,0,0.44,0.05,0.58,0.16
			c0.14,0.1,0.27,0.32,0.37,0.64l1.55,3.87h-0.4l1.57-3.9c0.12-0.29,0.26-0.5,0.41-0.6c0.15-0.11,0.36-0.16,0.62-0.16
			c0.23,0,0.4,0.06,0.54,0.18c0.13,0.12,0.22,0.27,0.25,0.46s-0.01,0.4-0.11,0.62l-3.05,6.93c-0.13,0.29-0.28,0.49-0.44,0.59
			C116.57,226.13,116.37,226.18,116.13,226.18z"/>
		<path class="st3" d="M125.02,223.87c-0.68,0-1.28-0.13-1.78-0.4c-0.5-0.27-0.9-0.65-1.18-1.15s-0.42-1.09-0.42-1.77
			c0-0.51,0.08-0.97,0.23-1.38c0.16-0.41,0.38-0.76,0.68-1.05c0.3-0.29,0.66-0.51,1.08-0.66c0.42-0.15,0.88-0.23,1.38-0.23
			c0.68,0,1.28,0.13,1.79,0.4c0.51,0.27,0.9,0.65,1.18,1.15c0.28,0.5,0.42,1.09,0.42,1.76c0,0.51-0.08,0.98-0.24,1.39
			c-0.16,0.42-0.39,0.77-0.68,1.05c-0.29,0.29-0.65,0.5-1.07,0.66C126.01,223.79,125.54,223.87,125.02,223.87z M125.02,222.41
			c0.29,0,0.53-0.07,0.74-0.2s0.37-0.34,0.49-0.62c0.12-0.28,0.18-0.63,0.18-1.05c0-0.63-0.13-1.1-0.39-1.4
			c-0.26-0.3-0.6-0.45-1.03-0.45c-0.28,0-0.52,0.06-0.73,0.19s-0.38,0.33-0.49,0.61c-0.12,0.28-0.18,0.62-0.18,1.04
			c0,0.64,0.13,1.11,0.39,1.42C124.26,222.26,124.6,222.41,125.02,222.41z"/>
		<path class="st3" d="M132.58,223.87c-0.54,0-0.98-0.1-1.34-0.3s-0.62-0.5-0.79-0.89s-0.25-0.89-0.25-1.49v-2.95
			c0-0.33,0.08-0.58,0.25-0.74s0.41-0.25,0.72-0.25s0.55,0.08,0.73,0.25c0.17,0.17,0.26,0.41,0.26,0.74v2.99
			c0,0.37,0.08,0.65,0.23,0.84c0.16,0.19,0.4,0.29,0.73,0.29c0.38,0,0.69-0.13,0.93-0.4s0.36-0.61,0.36-1.05v-2.68
			c0-0.33,0.09-0.58,0.26-0.74s0.41-0.25,0.71-0.25c0.32,0,0.57,0.08,0.73,0.25c0.17,0.17,0.25,0.41,0.25,0.74v4.62
			c0,0.66-0.32,0.99-0.95,0.99c-0.3,0-0.54-0.08-0.72-0.25s-0.26-0.41-0.26-0.73v-0.88l0.21,0.52c-0.19,0.45-0.46,0.79-0.82,1.03
			C133.49,223.75,133.07,223.87,132.58,223.87z"/>
		<path class="st3" d="M139.54,223.84c-0.33,0-0.58-0.08-0.75-0.25s-0.26-0.41-0.26-0.73v-4.62c0-0.32,0.08-0.57,0.25-0.73
			s0.41-0.25,0.72-0.25c0.3,0,0.54,0.08,0.7,0.25s0.25,0.41,0.25,0.73v0.68h-0.13c0.1-0.52,0.32-0.92,0.68-1.21
			c0.36-0.29,0.83-0.45,1.4-0.48c0.21-0.02,0.37,0.04,0.49,0.16c0.12,0.13,0.18,0.34,0.2,0.63c0.01,0.26-0.05,0.47-0.18,0.62
			c-0.13,0.16-0.34,0.25-0.63,0.29l-0.3,0.03c-0.49,0.04-0.86,0.19-1.1,0.43s-0.36,0.59-0.36,1.05v2.42c0,0.32-0.08,0.57-0.25,0.73
			S139.87,223.84,139.54,223.84z"/>
		<path class="st3" d="M149.76,216.2c-0.36,0-0.63-0.09-0.82-0.26s-0.29-0.42-0.29-0.74c0-0.31,0.1-0.55,0.29-0.72
			c0.19-0.17,0.46-0.25,0.82-0.25s0.64,0.08,0.84,0.25s0.29,0.41,0.29,0.72c0,0.32-0.1,0.57-0.29,0.74
			C150.4,216.11,150.12,216.2,149.76,216.2z M149.76,223.84c-0.3,0-0.54-0.09-0.71-0.28c-0.17-0.19-0.26-0.45-0.26-0.79v-4.46
			c0-0.35,0.09-0.61,0.26-0.79s0.41-0.27,0.71-0.27c0.32,0,0.57,0.09,0.73,0.27s0.25,0.44,0.25,0.79v4.46c0,0.34-0.08,0.6-0.25,0.79
			C150.33,223.75,150.09,223.84,149.76,223.84z"/>
		<path class="st3" d="M153.88,223.84c-0.3,0-0.54-0.08-0.71-0.25c-0.17-0.17-0.26-0.41-0.26-0.73v-4.62c0-0.32,0.08-0.57,0.25-0.73
			s0.41-0.25,0.72-0.25c0.3,0,0.54,0.08,0.7,0.25s0.25,0.41,0.25,0.73v0.74l-0.14-0.42c0.19-0.43,0.49-0.77,0.88-0.99
			s0.85-0.34,1.34-0.34c0.52,0,0.94,0.1,1.27,0.29c0.33,0.2,0.57,0.49,0.73,0.89c0.16,0.4,0.25,0.9,0.25,1.51v2.94
			c0,0.32-0.08,0.57-0.25,0.73s-0.41,0.25-0.73,0.25c-0.3,0-0.54-0.08-0.72-0.25c-0.18-0.17-0.27-0.41-0.27-0.73V220
			c0-0.44-0.08-0.76-0.24-0.96c-0.16-0.19-0.4-0.29-0.72-0.29c-0.42,0-0.75,0.13-0.99,0.39c-0.25,0.26-0.37,0.61-0.37,1.04v2.68
			C154.87,223.51,154.54,223.84,153.88,223.84z"/>
		<path class="st3" d="M164.41,223.87c-0.6,0-1.1-0.1-1.5-0.29c-0.4-0.19-0.7-0.48-0.89-0.86s-0.29-0.86-0.29-1.44v-2.46h-0.57
			c-0.23,0-0.42-0.06-0.55-0.19s-0.2-0.31-0.2-0.54s0.07-0.41,0.2-0.53c0.13-0.12,0.32-0.18,0.55-0.18h0.57v-1
			c0-0.33,0.08-0.58,0.25-0.74s0.41-0.25,0.72-0.25c0.32,0,0.57,0.08,0.73,0.25s0.25,0.41,0.25,0.74v1h1.21
			c0.25,0,0.44,0.06,0.57,0.18s0.19,0.3,0.19,0.53s-0.06,0.41-0.19,0.54c-0.13,0.13-0.32,0.19-0.57,0.19h-1.21v2.38
			c0,0.36,0.08,0.63,0.25,0.81s0.43,0.27,0.81,0.27c0.13,0,0.25-0.01,0.37-0.04s0.21-0.04,0.29-0.04c0.12-0.01,0.22,0.03,0.31,0.11
			c0.08,0.08,0.12,0.26,0.12,0.54c0,0.22-0.03,0.4-0.1,0.56s-0.19,0.26-0.37,0.32c-0.11,0.03-0.27,0.07-0.47,0.1
			S164.54,223.87,164.41,223.87z"/>
		<path class="st3" d="M170.48,223.87c-0.75,0-1.4-0.13-1.94-0.4s-0.96-0.65-1.25-1.15s-0.44-1.09-0.44-1.77
			c0-0.66,0.14-1.23,0.42-1.72s0.67-0.88,1.16-1.16c0.49-0.29,1.05-0.43,1.68-0.43c0.48,0,0.9,0.08,1.27,0.23
			c0.37,0.15,0.69,0.37,0.96,0.65s0.47,0.62,0.61,1.03c0.14,0.4,0.21,0.85,0.21,1.35c0,0.17-0.05,0.29-0.16,0.37
			c-0.1,0.08-0.26,0.12-0.45,0.12h-4.07v-1.01h3.26l-0.21,0.18c0-0.35-0.05-0.65-0.16-0.89c-0.1-0.24-0.25-0.42-0.45-0.55
			s-0.44-0.19-0.72-0.19c-0.32,0-0.59,0.07-0.82,0.22c-0.23,0.15-0.4,0.36-0.52,0.64c-0.12,0.28-0.18,0.62-0.18,1.01v0.1
			c0,0.66,0.15,1.14,0.46,1.46s0.76,0.47,1.38,0.47c0.21,0,0.44-0.03,0.71-0.08c0.26-0.05,0.52-0.13,0.76-0.25
			c0.21-0.1,0.39-0.13,0.53-0.09c0.15,0.04,0.27,0.11,0.36,0.21c0.09,0.11,0.14,0.24,0.15,0.38c0.01,0.15-0.02,0.29-0.1,0.44
			s-0.2,0.26-0.37,0.36c-0.3,0.17-0.64,0.3-1.01,0.37S170.82,223.87,170.48,223.87z"/>
		<path class="st3" d="M175.95,223.84c-0.33,0-0.58-0.08-0.75-0.25s-0.26-0.41-0.26-0.73v-4.62c0-0.32,0.08-0.57,0.25-0.73
			s0.41-0.25,0.72-0.25c0.3,0,0.54,0.08,0.7,0.25s0.25,0.41,0.25,0.73v0.68h-0.13c0.1-0.52,0.32-0.92,0.68-1.21
			c0.36-0.29,0.83-0.45,1.4-0.48c0.21-0.02,0.37,0.04,0.49,0.16c0.12,0.13,0.18,0.34,0.2,0.63c0.01,0.26-0.05,0.47-0.18,0.62
			c-0.13,0.16-0.34,0.25-0.63,0.29l-0.3,0.03c-0.49,0.04-0.86,0.19-1.1,0.43s-0.36,0.59-0.36,1.05v2.42c0,0.32-0.08,0.57-0.25,0.73
			S176.28,223.84,175.95,223.84z"/>
		<path class="st3" d="M184.26,223.87c-0.75,0-1.4-0.13-1.94-0.4s-0.96-0.65-1.25-1.15s-0.44-1.09-0.44-1.77
			c0-0.66,0.14-1.23,0.42-1.72s0.67-0.88,1.16-1.16c0.49-0.29,1.05-0.43,1.68-0.43c0.48,0,0.9,0.08,1.27,0.23
			c0.37,0.15,0.69,0.37,0.96,0.65s0.47,0.62,0.61,1.03c0.14,0.4,0.21,0.85,0.21,1.35c0,0.17-0.05,0.29-0.16,0.37
			c-0.1,0.08-0.26,0.12-0.45,0.12h-4.07v-1.01h3.26l-0.21,0.18c0-0.35-0.05-0.65-0.16-0.89c-0.1-0.24-0.25-0.42-0.45-0.55
			s-0.44-0.19-0.72-0.19c-0.32,0-0.59,0.07-0.82,0.22c-0.23,0.15-0.4,0.36-0.52,0.64c-0.12,0.28-0.18,0.62-0.18,1.01v0.1
			c0,0.66,0.15,1.14,0.46,1.46s0.76,0.47,1.38,0.47c0.21,0,0.44-0.03,0.71-0.08c0.26-0.05,0.52-0.13,0.76-0.25
			c0.21-0.1,0.39-0.13,0.53-0.09c0.15,0.04,0.27,0.11,0.36,0.21c0.09,0.11,0.14,0.24,0.15,0.38c0.01,0.15-0.02,0.29-0.1,0.44
			s-0.2,0.26-0.37,0.36c-0.3,0.17-0.64,0.3-1.01,0.37S184.6,223.87,184.26,223.87z"/>
		<path class="st3" d="M191.16,223.87c-0.37,0-0.76-0.03-1.17-0.1s-0.77-0.18-1.09-0.34c-0.18-0.09-0.31-0.2-0.38-0.33
			s-0.11-0.27-0.1-0.42c0.01-0.14,0.05-0.27,0.14-0.38s0.19-0.18,0.33-0.22c0.13-0.04,0.28-0.02,0.45,0.05
			c0.35,0.15,0.68,0.25,0.98,0.31s0.59,0.09,0.86,0.09c0.36,0,0.63-0.06,0.81-0.18c0.17-0.12,0.26-0.28,0.26-0.47
			c0-0.16-0.06-0.29-0.17-0.37s-0.28-0.15-0.49-0.19l-1.38-0.25c-0.53-0.1-0.94-0.3-1.23-0.6c-0.29-0.29-0.44-0.68-0.44-1.14
			c0-0.44,0.12-0.82,0.36-1.13s0.58-0.55,1.01-0.72s0.92-0.25,1.46-0.25c0.39,0,0.75,0.04,1.07,0.1c0.33,0.07,0.64,0.19,0.96,0.35
			c0.16,0.07,0.27,0.17,0.33,0.3s0.08,0.26,0.06,0.4c-0.03,0.14-0.08,0.26-0.16,0.37s-0.19,0.18-0.33,0.22s-0.29,0.02-0.47-0.06
			c-0.28-0.11-0.53-0.2-0.77-0.25c-0.23-0.06-0.45-0.08-0.65-0.08c-0.4,0-0.69,0.06-0.86,0.18c-0.18,0.12-0.27,0.28-0.27,0.47
			c0,0.15,0.05,0.27,0.16,0.37c0.1,0.1,0.26,0.17,0.47,0.2l1.38,0.23c0.55,0.1,0.98,0.3,1.27,0.58c0.29,0.28,0.44,0.66,0.44,1.14
			c0,0.68-0.26,1.2-0.77,1.57S192.02,223.87,191.16,223.87z"/>
		<path class="st3" d="M198.88,223.87c-0.6,0-1.1-0.1-1.5-0.29c-0.4-0.19-0.7-0.48-0.89-0.86s-0.29-0.86-0.29-1.44v-2.46h-0.57
			c-0.23,0-0.42-0.06-0.55-0.19s-0.2-0.31-0.2-0.54s0.07-0.41,0.2-0.53c0.13-0.12,0.32-0.18,0.55-0.18h0.57v-1
			c0-0.33,0.08-0.58,0.25-0.74s0.41-0.25,0.72-0.25c0.32,0,0.57,0.08,0.73,0.25s0.25,0.41,0.25,0.74v1h1.21
			c0.25,0,0.44,0.06,0.57,0.18s0.19,0.3,0.19,0.53s-0.06,0.41-0.19,0.54c-0.13,0.13-0.32,0.19-0.57,0.19h-1.21v2.38
			c0,0.36,0.08,0.63,0.25,0.81s0.43,0.27,0.81,0.27c0.13,0,0.25-0.01,0.37-0.04s0.21-0.04,0.29-0.04c0.12-0.01,0.22,0.03,0.31,0.11
			c0.08,0.08,0.12,0.26,0.12,0.54c0,0.22-0.03,0.4-0.1,0.56s-0.19,0.26-0.37,0.32c-0.11,0.03-0.27,0.07-0.47,0.1
			S199.01,223.87,198.88,223.87z"/>
		<path class="st3" d="M202.59,223.8c-0.35,0-0.62-0.1-0.83-0.31c-0.2-0.2-0.31-0.47-0.31-0.81c0-0.32,0.1-0.58,0.31-0.79
			s0.48-0.31,0.83-0.31s0.62,0.1,0.81,0.31c0.19,0.2,0.29,0.47,0.29,0.79c0,0.34-0.1,0.61-0.29,0.81
			C203.21,223.7,202.94,223.8,202.59,223.8z"/>
		<path class="st3" d="M18.93,238.84c-0.28,0-0.5-0.06-0.67-0.19s-0.3-0.33-0.4-0.61l-2.63-7.38c-0.12-0.33-0.1-0.61,0.06-0.84
			c0.16-0.23,0.44-0.34,0.83-0.34c0.29,0,0.51,0.06,0.66,0.19c0.16,0.13,0.28,0.33,0.36,0.61l2.13,6.38h-0.56l2.27-6.38
			c0.1-0.28,0.22-0.48,0.38-0.61s0.36-0.19,0.61-0.19c0.24,0,0.44,0.06,0.58,0.19c0.15,0.13,0.27,0.34,0.36,0.62l2.17,6.37H24.6
			l2.17-6.38c0.1-0.28,0.22-0.48,0.38-0.61s0.37-0.19,0.64-0.19c0.34,0,0.58,0.12,0.74,0.34c0.16,0.23,0.17,0.51,0.05,0.84
			l-2.64,7.38c-0.11,0.28-0.25,0.48-0.41,0.61s-0.38,0.19-0.66,0.19s-0.5-0.06-0.67-0.19s-0.3-0.33-0.4-0.61l-2.05-5.81h0.31
			l-2.09,5.81c-0.1,0.28-0.24,0.48-0.4,0.61C19.44,238.78,19.21,238.84,18.93,238.84z"/>
		<path class="st3" d="M33.12,238.87c-0.75,0-1.4-0.13-1.94-0.4s-0.96-0.65-1.25-1.15s-0.44-1.09-0.44-1.77
			c0-0.66,0.14-1.23,0.42-1.72s0.67-0.88,1.16-1.16c0.49-0.29,1.05-0.43,1.68-0.43c0.48,0,0.9,0.08,1.27,0.23s0.69,0.37,0.96,0.65
			s0.47,0.62,0.61,1.03c0.14,0.4,0.21,0.85,0.21,1.35c0,0.17-0.05,0.29-0.16,0.37c-0.1,0.08-0.26,0.12-0.45,0.12h-4.07v-1.01h3.26
			l-0.21,0.18c0-0.35-0.05-0.65-0.16-0.89c-0.1-0.24-0.25-0.42-0.45-0.55s-0.44-0.19-0.72-0.19c-0.32,0-0.59,0.07-0.82,0.22
			s-0.4,0.36-0.52,0.64s-0.18,0.62-0.18,1.01v0.1c0,0.66,0.15,1.14,0.46,1.46c0.31,0.32,0.76,0.47,1.38,0.47
			c0.21,0,0.44-0.03,0.71-0.08c0.26-0.05,0.52-0.13,0.76-0.25c0.21-0.1,0.39-0.13,0.53-0.09c0.15,0.04,0.27,0.11,0.36,0.21
			c0.09,0.11,0.14,0.24,0.15,0.38c0.01,0.15-0.02,0.29-0.1,0.44s-0.2,0.26-0.37,0.36c-0.3,0.17-0.64,0.3-1.01,0.37
			S33.46,238.87,33.12,238.87z"/>
		<path class="st3" d="M41.27,238.84c-0.3,0-0.54-0.08-0.71-0.25s-0.26-0.41-0.26-0.73v-7.4c0-0.33,0.09-0.58,0.26-0.74
			s0.41-0.25,0.71-0.25c0.32,0,0.57,0.08,0.73,0.25s0.25,0.41,0.25,0.74v3.11h-0.18c0.19-0.43,0.49-0.77,0.88-0.99
			s0.85-0.34,1.34-0.34c0.52,0,0.94,0.1,1.27,0.29c0.33,0.19,0.57,0.49,0.73,0.88c0.16,0.4,0.25,0.91,0.25,1.52v2.94
			c0,0.32-0.08,0.57-0.25,0.73s-0.41,0.25-0.73,0.25c-0.3,0-0.54-0.08-0.72-0.25s-0.27-0.41-0.27-0.73v-2.86
			c0-0.44-0.08-0.76-0.24-0.96c-0.16-0.19-0.4-0.29-0.72-0.29c-0.42,0-0.75,0.13-0.99,0.39c-0.25,0.26-0.37,0.61-0.37,1.04v2.68
			C42.26,238.51,41.93,238.84,41.27,238.84z"/>
		<path class="st3" d="M50.97,238.87c-0.68,0-1.28-0.13-1.78-0.4c-0.5-0.27-0.9-0.65-1.18-1.15s-0.42-1.09-0.42-1.77
			c0-0.51,0.08-0.97,0.23-1.38c0.16-0.41,0.38-0.76,0.68-1.05c0.3-0.29,0.66-0.51,1.08-0.66c0.42-0.15,0.88-0.23,1.38-0.23
			c0.68,0,1.28,0.13,1.79,0.4c0.51,0.27,0.9,0.65,1.18,1.15s0.42,1.09,0.42,1.76c0,0.51-0.08,0.98-0.24,1.39
			c-0.16,0.42-0.39,0.77-0.68,1.05c-0.29,0.29-0.65,0.5-1.07,0.66C51.96,238.79,51.49,238.87,50.97,238.87z M50.97,237.41
			c0.29,0,0.53-0.07,0.74-0.2s0.37-0.34,0.49-0.62c0.12-0.28,0.18-0.63,0.18-1.05c0-0.63-0.13-1.1-0.39-1.4
			c-0.26-0.3-0.6-0.45-1.03-0.45c-0.28,0-0.52,0.06-0.73,0.19s-0.38,0.33-0.49,0.61c-0.12,0.28-0.18,0.62-0.18,1.04
			c0,0.64,0.13,1.11,0.39,1.42C50.22,237.26,50.56,237.41,50.97,237.41z"/>
		<path class="st3" d="M56.39,241.18c-0.3,0-0.54-0.08-0.71-0.25c-0.17-0.16-0.26-0.41-0.26-0.74v-6.96c0-0.32,0.08-0.57,0.25-0.73
			s0.41-0.25,0.72-0.25c0.3,0,0.54,0.08,0.71,0.25s0.25,0.41,0.25,0.73v0.88l-0.14-0.51c0.13-0.42,0.39-0.76,0.79-1.01
			c0.39-0.25,0.85-0.38,1.36-0.38c0.55,0,1.04,0.13,1.47,0.4c0.42,0.27,0.75,0.65,0.98,1.14s0.34,1.08,0.34,1.77
			s-0.12,1.28-0.35,1.78s-0.56,0.89-0.98,1.15s-0.91,0.4-1.47,0.4c-0.5,0-0.95-0.12-1.34-0.36s-0.65-0.56-0.78-0.95h0.14v2.64
			c0,0.33-0.08,0.58-0.25,0.74C56.96,241.1,56.71,241.18,56.39,241.18z M58.77,237.41c0.28,0,0.52-0.07,0.73-0.2
			s0.38-0.34,0.49-0.62c0.12-0.28,0.18-0.63,0.18-1.05c0-0.63-0.13-1.1-0.39-1.4c-0.26-0.3-0.6-0.45-1.01-0.45
			c-0.28,0-0.52,0.06-0.73,0.19s-0.38,0.33-0.49,0.61c-0.12,0.28-0.18,0.62-0.18,1.04c0,0.64,0.13,1.11,0.39,1.42
			C58.02,237.26,58.36,237.41,58.77,237.41z"/>
		<path class="st3" d="M66.53,238.87c-0.75,0-1.4-0.13-1.94-0.4s-0.96-0.65-1.25-1.15s-0.44-1.09-0.44-1.77
			c0-0.66,0.14-1.23,0.42-1.72s0.67-0.88,1.16-1.16c0.49-0.29,1.05-0.43,1.68-0.43c0.48,0,0.9,0.08,1.27,0.23
			c0.37,0.15,0.69,0.37,0.96,0.65s0.47,0.62,0.61,1.03c0.14,0.4,0.21,0.85,0.21,1.35c0,0.17-0.05,0.29-0.16,0.37
			c-0.1,0.08-0.26,0.12-0.45,0.12h-4.07v-1.01h3.26l-0.21,0.18c0-0.35-0.05-0.65-0.16-0.89c-0.1-0.24-0.25-0.42-0.45-0.55
			s-0.44-0.19-0.72-0.19c-0.32,0-0.59,0.07-0.82,0.22s-0.4,0.36-0.52,0.64c-0.12,0.28-0.18,0.62-0.18,1.01v0.1
			c0,0.66,0.15,1.14,0.46,1.46s0.76,0.47,1.38,0.47c0.21,0,0.44-0.03,0.71-0.08c0.26-0.05,0.52-0.13,0.76-0.25
			c0.21-0.1,0.39-0.13,0.53-0.09c0.15,0.04,0.27,0.11,0.36,0.21c0.09,0.11,0.14,0.24,0.15,0.38c0.01,0.15-0.02,0.29-0.1,0.44
			s-0.2,0.26-0.37,0.36c-0.3,0.17-0.64,0.3-1.01,0.37S66.87,238.87,66.53,238.87z"/>
		<path class="st3" d="M75.45,241.18c-0.23,0-0.42-0.06-0.56-0.17c-0.14-0.12-0.23-0.27-0.26-0.47c-0.03-0.19,0-0.4,0.1-0.62
			l0.87-1.91v0.79l-2.3-5.28c-0.09-0.23-0.11-0.44-0.08-0.63c0.03-0.2,0.13-0.35,0.29-0.47s0.38-0.18,0.66-0.18
			c0.24,0,0.44,0.05,0.58,0.16c0.14,0.1,0.27,0.32,0.37,0.64l1.55,3.87h-0.4l1.57-3.9c0.12-0.29,0.26-0.5,0.41-0.6
			c0.15-0.11,0.36-0.16,0.62-0.16c0.23,0,0.4,0.06,0.54,0.18c0.13,0.12,0.22,0.27,0.25,0.46s-0.01,0.4-0.11,0.62l-3.05,6.93
			c-0.13,0.29-0.28,0.49-0.44,0.59C75.89,241.13,75.69,241.18,75.45,241.18z"/>
		<path class="st3" d="M83.58,238.87c-0.68,0-1.28-0.13-1.78-0.4c-0.5-0.27-0.9-0.65-1.18-1.15s-0.42-1.09-0.42-1.77
			c0-0.51,0.08-0.97,0.23-1.38c0.16-0.41,0.38-0.76,0.68-1.05c0.3-0.29,0.66-0.51,1.08-0.66c0.42-0.15,0.88-0.23,1.38-0.23
			c0.68,0,1.28,0.13,1.79,0.4c0.51,0.27,0.9,0.65,1.18,1.15s0.42,1.09,0.42,1.76c0,0.51-0.08,0.98-0.24,1.39
			c-0.16,0.42-0.39,0.77-0.68,1.05c-0.29,0.29-0.65,0.5-1.07,0.66C84.56,238.79,84.1,238.87,83.58,238.87z M83.58,237.41
			c0.29,0,0.53-0.07,0.74-0.2s0.37-0.34,0.49-0.62c0.12-0.28,0.18-0.63,0.18-1.05c0-0.63-0.13-1.1-0.39-1.4
			c-0.26-0.3-0.6-0.45-1.03-0.45c-0.28,0-0.52,0.06-0.73,0.19s-0.38,0.33-0.49,0.61c-0.12,0.28-0.18,0.62-0.18,1.04
			c0,0.64,0.13,1.11,0.39,1.42C82.82,237.26,83.16,237.41,83.58,237.41z"/>
		<path class="st3" d="M90.37,238.87c-0.54,0-0.98-0.1-1.34-0.3c-0.36-0.2-0.62-0.5-0.79-0.89s-0.25-0.89-0.25-1.49v-2.95
			c0-0.33,0.08-0.58,0.25-0.74s0.41-0.25,0.72-0.25s0.55,0.08,0.73,0.25c0.17,0.17,0.26,0.41,0.26,0.74v2.99
			c0,0.37,0.08,0.65,0.23,0.84c0.16,0.19,0.4,0.29,0.73,0.29c0.38,0,0.69-0.13,0.93-0.4s0.36-0.61,0.36-1.05v-2.68
			c0-0.33,0.09-0.58,0.26-0.74c0.17-0.16,0.41-0.25,0.71-0.25c0.32,0,0.57,0.08,0.73,0.25c0.17,0.17,0.25,0.41,0.25,0.74v4.62
			c0,0.66-0.32,0.99-0.95,0.99c-0.3,0-0.54-0.08-0.72-0.25s-0.26-0.41-0.26-0.73v-0.88l0.21,0.52c-0.19,0.45-0.46,0.79-0.82,1.03
			C91.28,238.75,90.86,238.87,90.37,238.87z"/>
		<path class="st3" d="M100.01,238.84c-0.3,0-0.54-0.08-0.71-0.25s-0.26-0.41-0.26-0.73v-7.4c0-0.33,0.09-0.58,0.26-0.74
			c0.17-0.16,0.41-0.25,0.71-0.25c0.32,0,0.57,0.08,0.73,0.25s0.25,0.41,0.25,0.74v4.55h0.03l1.88-2.09
			c0.19-0.23,0.36-0.39,0.52-0.5c0.16-0.11,0.37-0.16,0.65-0.16s0.49,0.07,0.62,0.21s0.21,0.31,0.21,0.5s-0.08,0.4-0.25,0.6
			l-1.99,2.2v-0.74l2.21,2.55c0.16,0.21,0.24,0.41,0.21,0.61c-0.02,0.2-0.11,0.36-0.27,0.48c-0.16,0.12-0.36,0.18-0.59,0.18
			c-0.29,0-0.53-0.05-0.71-0.16s-0.36-0.27-0.54-0.5l-1.96-2.2H101v1.87C101,238.51,100.67,238.84,100.01,238.84z"/>
		<path class="st3" d="M109.47,238.87c-0.75,0-1.4-0.13-1.94-0.4s-0.96-0.65-1.25-1.15s-0.44-1.09-0.44-1.77
			c0-0.66,0.14-1.23,0.42-1.72s0.67-0.88,1.16-1.16c0.49-0.29,1.05-0.43,1.68-0.43c0.48,0,0.9,0.08,1.27,0.23
			c0.37,0.15,0.69,0.37,0.96,0.65s0.47,0.62,0.61,1.03c0.14,0.4,0.21,0.85,0.21,1.35c0,0.17-0.05,0.29-0.16,0.37
			c-0.1,0.08-0.26,0.12-0.45,0.12h-4.07v-1.01h3.26l-0.21,0.18c0-0.35-0.05-0.65-0.16-0.89c-0.1-0.24-0.25-0.42-0.45-0.55
			s-0.44-0.19-0.72-0.19c-0.32,0-0.59,0.07-0.82,0.22s-0.4,0.36-0.52,0.64c-0.12,0.28-0.18,0.62-0.18,1.01v0.1
			c0,0.66,0.15,1.14,0.46,1.46s0.76,0.47,1.38,0.47c0.21,0,0.44-0.03,0.71-0.08c0.26-0.05,0.52-0.13,0.76-0.25
			c0.21-0.1,0.39-0.13,0.53-0.09c0.15,0.04,0.27,0.11,0.36,0.21c0.09,0.11,0.14,0.24,0.15,0.38c0.01,0.15-0.02,0.29-0.1,0.44
			s-0.2,0.26-0.37,0.36c-0.3,0.17-0.64,0.3-1.01,0.37S109.81,238.87,109.47,238.87z"/>
		<path class="st3" d="M116.48,238.87c-0.75,0-1.4-0.13-1.94-0.4s-0.96-0.65-1.25-1.15s-0.44-1.09-0.44-1.77
			c0-0.66,0.14-1.23,0.42-1.72s0.67-0.88,1.16-1.16c0.49-0.29,1.05-0.43,1.68-0.43c0.48,0,0.9,0.08,1.27,0.23
			c0.37,0.15,0.69,0.37,0.96,0.65s0.47,0.62,0.61,1.03c0.14,0.4,0.21,0.85,0.21,1.35c0,0.17-0.05,0.29-0.16,0.37
			c-0.1,0.08-0.26,0.12-0.45,0.12h-4.07v-1.01h3.26l-0.21,0.18c0-0.35-0.05-0.65-0.16-0.89c-0.1-0.24-0.25-0.42-0.45-0.55
			s-0.44-0.19-0.72-0.19c-0.32,0-0.59,0.07-0.82,0.22s-0.4,0.36-0.52,0.64c-0.12,0.28-0.18,0.62-0.18,1.01v0.1
			c0,0.66,0.15,1.14,0.46,1.46s0.76,0.47,1.38,0.47c0.21,0,0.44-0.03,0.71-0.08c0.26-0.05,0.52-0.13,0.76-0.25
			c0.21-0.1,0.39-0.13,0.53-0.09c0.15,0.04,0.27,0.11,0.36,0.21c0.09,0.11,0.14,0.24,0.15,0.38c0.01,0.15-0.02,0.29-0.1,0.44
			s-0.2,0.26-0.37,0.36c-0.3,0.17-0.64,0.3-1.01,0.37S116.82,238.87,116.48,238.87z"/>
		<path class="st3" d="M121.15,241.18c-0.3,0-0.54-0.08-0.71-0.25c-0.17-0.16-0.26-0.41-0.26-0.74v-6.96c0-0.32,0.08-0.57,0.25-0.73
			s0.41-0.25,0.72-0.25c0.3,0,0.54,0.08,0.71,0.25s0.25,0.41,0.25,0.73v0.88l-0.14-0.51c0.13-0.42,0.39-0.76,0.79-1.01
			c0.39-0.25,0.85-0.38,1.36-0.38c0.55,0,1.04,0.13,1.47,0.4c0.42,0.27,0.75,0.65,0.98,1.14s0.34,1.08,0.34,1.77
			s-0.12,1.28-0.35,1.78c-0.23,0.5-0.56,0.89-0.98,1.15c-0.42,0.26-0.91,0.4-1.47,0.4c-0.5,0-0.95-0.12-1.34-0.36
			s-0.65-0.56-0.78-0.95h0.14v2.64c0,0.33-0.08,0.58-0.25,0.74C121.71,241.1,121.47,241.18,121.15,241.18z M123.52,237.41
			c0.28,0,0.52-0.07,0.73-0.2s0.38-0.34,0.49-0.62c0.12-0.28,0.18-0.63,0.18-1.05c0-0.63-0.13-1.1-0.39-1.4
			c-0.26-0.3-0.6-0.45-1.01-0.45c-0.28,0-0.52,0.06-0.73,0.19s-0.38,0.33-0.49,0.61c-0.12,0.28-0.18,0.62-0.18,1.04
			c0,0.64,0.13,1.11,0.39,1.42C122.77,237.26,123.11,237.41,123.52,237.41z"/>
		<path class="st3" d="M133.9,238.87c-0.37,0-0.76-0.03-1.17-0.1s-0.77-0.18-1.09-0.34c-0.18-0.09-0.31-0.2-0.38-0.33
			s-0.11-0.27-0.1-0.42c0.01-0.14,0.05-0.27,0.14-0.38s0.19-0.18,0.33-0.22c0.13-0.04,0.28-0.02,0.45,0.05
			c0.35,0.15,0.68,0.25,0.98,0.31s0.59,0.09,0.86,0.09c0.36,0,0.63-0.06,0.81-0.18c0.17-0.12,0.26-0.28,0.26-0.47
			c0-0.16-0.06-0.29-0.17-0.37s-0.28-0.15-0.49-0.19l-1.38-0.25c-0.53-0.1-0.94-0.3-1.23-0.6c-0.29-0.29-0.44-0.68-0.44-1.14
			c0-0.44,0.12-0.82,0.36-1.13s0.58-0.55,1.01-0.72s0.92-0.25,1.46-0.25c0.39,0,0.75,0.04,1.07,0.1c0.33,0.07,0.64,0.19,0.96,0.35
			c0.16,0.07,0.27,0.17,0.33,0.3s0.08,0.26,0.06,0.4c-0.03,0.14-0.08,0.26-0.16,0.37s-0.19,0.18-0.33,0.22s-0.29,0.02-0.47-0.06
			c-0.28-0.11-0.53-0.2-0.77-0.25c-0.23-0.06-0.45-0.08-0.65-0.08c-0.4,0-0.69,0.06-0.86,0.18c-0.18,0.12-0.27,0.28-0.27,0.47
			c0,0.15,0.05,0.27,0.16,0.37c0.1,0.1,0.26,0.17,0.47,0.2l1.38,0.23c0.55,0.1,0.98,0.3,1.27,0.58c0.29,0.28,0.44,0.66,0.44,1.14
			c0,0.68-0.26,1.2-0.77,1.57S134.76,238.87,133.9,238.87z"/>
		<path class="st3" d="M141.03,238.87c-0.75,0-1.4-0.13-1.94-0.4s-0.96-0.65-1.25-1.15s-0.44-1.09-0.44-1.77
			c0-0.66,0.14-1.23,0.42-1.72s0.67-0.88,1.16-1.16c0.49-0.29,1.05-0.43,1.68-0.43c0.48,0,0.9,0.08,1.27,0.23
			c0.37,0.15,0.69,0.37,0.96,0.65s0.47,0.62,0.61,1.03c0.14,0.4,0.21,0.85,0.21,1.35c0,0.17-0.05,0.29-0.16,0.37
			c-0.1,0.08-0.26,0.12-0.45,0.12h-4.07v-1.01h3.26l-0.21,0.18c0-0.35-0.05-0.65-0.16-0.89c-0.1-0.24-0.25-0.42-0.45-0.55
			s-0.44-0.19-0.72-0.19c-0.32,0-0.59,0.07-0.82,0.22c-0.23,0.15-0.4,0.36-0.52,0.64c-0.12,0.28-0.18,0.62-0.18,1.01v0.1
			c0,0.66,0.15,1.14,0.46,1.46s0.76,0.47,1.38,0.47c0.21,0,0.44-0.03,0.71-0.08c0.26-0.05,0.52-0.13,0.76-0.25
			c0.21-0.1,0.39-0.13,0.53-0.09c0.15,0.04,0.27,0.11,0.36,0.21c0.09,0.11,0.14,0.24,0.15,0.38c0.01,0.15-0.02,0.29-0.1,0.44
			s-0.2,0.26-0.37,0.36c-0.3,0.17-0.64,0.3-1.01,0.37S141.37,238.87,141.03,238.87z"/>
		<path class="st3" d="M146.9,238.87c-0.49,0-0.91-0.09-1.27-0.27c-0.36-0.18-0.65-0.42-0.86-0.73s-0.31-0.66-0.31-1.06
			c0-0.47,0.12-0.84,0.36-1.1c0.24-0.27,0.63-0.46,1.18-0.58c0.54-0.12,1.26-0.18,2.16-0.18h0.69v1.01h-0.68
			c-0.45,0-0.81,0.02-1.07,0.07c-0.26,0.05-0.46,0.13-0.58,0.25s-0.18,0.27-0.18,0.46c0,0.23,0.08,0.43,0.25,0.58
			c0.17,0.16,0.41,0.23,0.72,0.23c0.25,0,0.48-0.06,0.68-0.17s0.35-0.27,0.47-0.47s0.17-0.44,0.17-0.72v-1.48
			c0-0.38-0.09-0.65-0.26-0.81s-0.47-0.24-0.9-0.24c-0.23,0-0.47,0.03-0.75,0.08c-0.27,0.05-0.57,0.15-0.9,0.29
			c-0.2,0.08-0.37,0.1-0.51,0.05s-0.25-0.13-0.33-0.25c-0.08-0.13-0.12-0.27-0.12-0.42c0-0.16,0.04-0.3,0.13-0.44
			c0.09-0.14,0.23-0.24,0.44-0.31c0.4-0.16,0.78-0.27,1.14-0.33s0.69-0.1,0.98-0.1c0.67,0,1.22,0.1,1.66,0.29
			c0.44,0.2,0.76,0.5,0.98,0.9s0.32,0.92,0.32,1.55v2.89c0,0.32-0.08,0.57-0.24,0.73c-0.16,0.17-0.38,0.25-0.67,0.25
			s-0.52-0.08-0.68-0.25c-0.16-0.17-0.24-0.41-0.24-0.73v-0.48l0.09,0.09c-0.05,0.29-0.16,0.53-0.33,0.74s-0.38,0.37-0.64,0.49
			C147.53,238.81,147.24,238.87,146.9,238.87z"/>
		<path class="st3" d="M152.86,238.84c-0.33,0-0.58-0.08-0.75-0.25s-0.26-0.41-0.26-0.73v-4.62c0-0.32,0.08-0.57,0.25-0.73
			s0.41-0.25,0.72-0.25c0.3,0,0.54,0.08,0.7,0.25s0.25,0.41,0.25,0.73v0.68h-0.13c0.1-0.52,0.32-0.92,0.68-1.21
			c0.36-0.29,0.83-0.45,1.4-0.48c0.21-0.02,0.37,0.04,0.49,0.16c0.12,0.13,0.18,0.34,0.2,0.63c0.01,0.26-0.05,0.47-0.18,0.62
			c-0.13,0.16-0.34,0.25-0.63,0.29l-0.3,0.03c-0.49,0.04-0.86,0.19-1.1,0.43s-0.36,0.59-0.36,1.05v2.42c0,0.32-0.08,0.57-0.25,0.73
			S153.19,238.84,152.86,238.84z"/>
		<path class="st3" d="M160.2,238.87c-0.69,0-1.3-0.13-1.81-0.4c-0.51-0.27-0.91-0.65-1.19-1.16c-0.28-0.5-0.42-1.1-0.42-1.78
			c0-0.51,0.08-0.97,0.23-1.38c0.16-0.41,0.38-0.75,0.68-1.04c0.3-0.29,0.66-0.5,1.09-0.66c0.42-0.15,0.9-0.23,1.42-0.23
			c0.27,0,0.56,0.03,0.86,0.1s0.61,0.17,0.9,0.32c0.16,0.1,0.28,0.21,0.34,0.35s0.09,0.28,0.07,0.44c-0.02,0.15-0.07,0.29-0.16,0.4
			c-0.09,0.12-0.21,0.2-0.34,0.23s-0.29,0.02-0.47-0.07c-0.16-0.09-0.34-0.15-0.51-0.2c-0.18-0.05-0.34-0.07-0.5-0.07
			c-0.26,0-0.49,0.04-0.69,0.12s-0.37,0.2-0.5,0.35c-0.13,0.15-0.24,0.34-0.31,0.57c-0.07,0.23-0.11,0.48-0.11,0.77
			c0,0.57,0.14,1.02,0.42,1.36c0.28,0.33,0.68,0.5,1.19,0.5c0.16,0,0.32-0.02,0.49-0.06s0.35-0.11,0.52-0.21
			c0.17-0.09,0.33-0.11,0.46-0.06c0.13,0.04,0.25,0.12,0.34,0.24c0.09,0.12,0.14,0.25,0.15,0.4s-0.02,0.3-0.08,0.44
			s-0.18,0.25-0.34,0.32c-0.29,0.16-0.58,0.26-0.88,0.33C160.75,238.84,160.46,238.87,160.2,238.87z"/>
		<path class="st3" d="M164.15,238.84c-0.3,0-0.54-0.08-0.71-0.25c-0.17-0.17-0.26-0.41-0.26-0.73v-7.4c0-0.33,0.09-0.58,0.26-0.74
			s0.41-0.25,0.71-0.25c0.32,0,0.57,0.08,0.73,0.25s0.25,0.41,0.25,0.74v3.11h-0.18c0.19-0.43,0.49-0.77,0.88-0.99
			s0.85-0.34,1.34-0.34c0.52,0,0.94,0.1,1.27,0.29c0.33,0.19,0.57,0.49,0.73,0.88c0.16,0.4,0.25,0.91,0.25,1.52v2.94
			c0,0.32-0.08,0.57-0.25,0.73s-0.41,0.25-0.73,0.25c-0.3,0-0.54-0.08-0.72-0.25c-0.18-0.17-0.27-0.41-0.27-0.73v-2.86
			c0-0.44-0.08-0.76-0.24-0.96c-0.16-0.19-0.4-0.29-0.72-0.29c-0.42,0-0.75,0.13-0.99,0.39c-0.25,0.26-0.37,0.61-0.37,1.04v2.68
			C165.14,238.51,164.81,238.84,164.15,238.84z"/>
		<path class="st3" d="M171.75,231.2c-0.36,0-0.63-0.09-0.82-0.26s-0.29-0.42-0.29-0.74c0-0.31,0.1-0.55,0.29-0.72
			c0.19-0.17,0.46-0.25,0.82-0.25s0.64,0.08,0.84,0.25s0.29,0.41,0.29,0.72c0,0.32-0.1,0.57-0.29,0.74
			C172.4,231.11,172.12,231.2,171.75,231.2z M171.75,238.84c-0.3,0-0.54-0.09-0.71-0.28c-0.17-0.19-0.26-0.45-0.26-0.79v-4.46
			c0-0.35,0.09-0.61,0.26-0.79s0.41-0.27,0.71-0.27c0.32,0,0.57,0.09,0.73,0.27s0.25,0.44,0.25,0.79v4.46c0,0.34-0.08,0.6-0.25,0.79
			C172.33,238.75,172.08,238.84,171.75,238.84z"/>
		<path class="st3" d="M175.11,238.84c-0.3,0-0.54-0.08-0.71-0.25c-0.17-0.17-0.26-0.41-0.26-0.73v-4.62c0-0.32,0.08-0.57,0.25-0.73
			s0.41-0.25,0.72-0.25c0.3,0,0.54,0.08,0.7,0.25s0.25,0.41,0.25,0.73v0.74l-0.14-0.42c0.19-0.43,0.49-0.77,0.88-0.99
			s0.85-0.34,1.34-0.34c0.52,0,0.94,0.1,1.27,0.29c0.33,0.2,0.57,0.49,0.73,0.89c0.16,0.4,0.25,0.9,0.25,1.51v2.94
			c0,0.32-0.08,0.57-0.25,0.73s-0.41,0.25-0.73,0.25c-0.3,0-0.54-0.08-0.72-0.25c-0.18-0.17-0.27-0.41-0.27-0.73V235
			c0-0.44-0.08-0.76-0.24-0.96c-0.16-0.19-0.4-0.29-0.72-0.29c-0.42,0-0.75,0.13-0.99,0.39c-0.25,0.26-0.37,0.61-0.37,1.04v2.68
			C176.09,238.51,175.77,238.84,175.11,238.84z"/>
		<path class="st3" d="M184.8,241.21c-0.47,0-0.92-0.04-1.35-0.11c-0.43-0.07-0.81-0.19-1.14-0.34c-0.2-0.08-0.34-0.19-0.42-0.33
			s-0.11-0.29-0.1-0.45c0.02-0.16,0.07-0.29,0.15-0.42c0.08-0.12,0.2-0.21,0.34-0.25c0.14-0.05,0.29-0.04,0.45,0.03
			c0.38,0.17,0.73,0.29,1.06,0.34s0.6,0.08,0.84,0.08c0.55,0,0.97-0.13,1.25-0.38s0.42-0.64,0.42-1.16v-1h0.12
			c-0.14,0.42-0.41,0.75-0.81,0.99s-0.85,0.36-1.35,0.36c-0.57,0-1.07-0.13-1.5-0.4c-0.42-0.26-0.75-0.63-0.99-1.1
			s-0.35-1.03-0.35-1.67c0-0.48,0.07-0.91,0.2-1.3c0.13-0.39,0.32-0.72,0.57-1s0.55-0.49,0.9-0.64c0.35-0.15,0.74-0.23,1.16-0.23
			c0.51,0,0.96,0.12,1.36,0.37c0.39,0.25,0.65,0.57,0.77,0.96l-0.12,0.44v-0.75c0-0.32,0.09-0.57,0.26-0.73s0.41-0.25,0.72-0.25
			s0.55,0.08,0.71,0.25s0.25,0.41,0.25,0.73V238c0,1.07-0.29,1.88-0.87,2.42C186.76,240.94,185.91,241.21,184.8,241.21z
			 M184.84,237.11c0.29,0,0.54-0.07,0.75-0.21c0.22-0.14,0.39-0.34,0.51-0.59c0.12-0.26,0.18-0.56,0.18-0.92
			c0-0.54-0.13-0.96-0.39-1.25c-0.26-0.3-0.61-0.45-1.05-0.45c-0.3,0-0.56,0.07-0.77,0.21s-0.38,0.33-0.49,0.58
			c-0.12,0.25-0.18,0.55-0.18,0.91c0,0.53,0.13,0.95,0.39,1.25C184.05,236.96,184.4,237.11,184.84,237.11z"/>
		<path class="st3" d="M196.21,238.87c-0.6,0-1.1-0.1-1.5-0.29c-0.4-0.19-0.7-0.48-0.89-0.86s-0.29-0.86-0.29-1.44v-2.46h-0.57
			c-0.23,0-0.42-0.06-0.55-0.19s-0.2-0.31-0.2-0.54s0.07-0.41,0.2-0.53c0.13-0.12,0.32-0.18,0.55-0.18h0.57v-1
			c0-0.33,0.08-0.58,0.25-0.74s0.41-0.25,0.72-0.25c0.32,0,0.57,0.08,0.73,0.25s0.25,0.41,0.25,0.74v1h1.21
			c0.25,0,0.44,0.06,0.57,0.18s0.19,0.3,0.19,0.53s-0.06,0.41-0.19,0.54c-0.13,0.13-0.32,0.19-0.57,0.19h-1.21v2.38
			c0,0.36,0.08,0.63,0.25,0.81s0.43,0.27,0.81,0.27c0.13,0,0.25-0.01,0.37-0.04s0.21-0.04,0.29-0.04c0.12-0.01,0.22,0.03,0.31,0.11
			c0.08,0.08,0.12,0.26,0.12,0.54c0,0.22-0.03,0.4-0.1,0.56s-0.19,0.26-0.37,0.32c-0.11,0.03-0.27,0.07-0.47,0.1
			S196.34,238.87,196.21,238.87z"/>
		<path class="st3" d="M201.26,238.87c-0.68,0-1.28-0.13-1.78-0.4c-0.5-0.27-0.9-0.65-1.18-1.15s-0.42-1.09-0.42-1.77
			c0-0.51,0.08-0.97,0.23-1.38c0.16-0.41,0.38-0.76,0.68-1.05c0.3-0.29,0.66-0.51,1.08-0.66c0.42-0.15,0.88-0.23,1.38-0.23
			c0.68,0,1.28,0.13,1.79,0.4c0.51,0.27,0.9,0.65,1.18,1.15s0.42,1.09,0.42,1.76c0,0.51-0.08,0.98-0.24,1.39
			c-0.16,0.42-0.39,0.77-0.68,1.05c-0.29,0.29-0.65,0.5-1.07,0.66C202.25,238.79,201.78,238.87,201.26,238.87z M201.26,237.41
			c0.29,0,0.53-0.07,0.74-0.2s0.37-0.34,0.49-0.62c0.12-0.28,0.18-0.63,0.18-1.05c0-0.63-0.13-1.1-0.39-1.4
			c-0.26-0.3-0.6-0.45-1.03-0.45c-0.28,0-0.52,0.06-0.73,0.19s-0.38,0.33-0.49,0.61c-0.12,0.28-0.18,0.62-0.18,1.04
			c0,0.64,0.13,1.11,0.39,1.42C200.51,237.26,200.85,237.41,201.26,237.41z"/>
		<path class="st3" d="M33.34,253.84c-0.32,0-0.57-0.08-0.73-0.25s-0.25-0.41-0.25-0.73v-4.04h-0.47c-0.24,0-0.43-0.06-0.56-0.19
			c-0.13-0.12-0.2-0.3-0.2-0.54s0.06-0.41,0.2-0.53c0.13-0.12,0.32-0.18,0.56-0.18h1.04l-0.57,0.52v-0.42c0-0.92,0.23-1.61,0.7-2.07
			s1.15-0.74,2.04-0.84l0.42-0.03c0.23-0.03,0.4,0,0.53,0.09s0.22,0.2,0.27,0.34s0.06,0.28,0.03,0.42
			c-0.03,0.14-0.09,0.27-0.19,0.38s-0.22,0.17-0.36,0.18l-0.18,0.01c-0.47,0.03-0.8,0.15-1,0.33c-0.2,0.19-0.3,0.47-0.3,0.84v0.46
			l-0.23-0.21h1.17c0.24,0,0.43,0.06,0.56,0.18s0.19,0.3,0.19,0.53s-0.06,0.41-0.19,0.54c-0.13,0.13-0.32,0.19-0.56,0.19h-0.94v4.04
			C34.31,253.51,33.99,253.84,33.34,253.84z"/>
		<path class="st3" d="M38.26,246.2c-0.36,0-0.63-0.09-0.82-0.26s-0.29-0.42-0.29-0.74c0-0.31,0.1-0.55,0.29-0.72
			c0.19-0.17,0.46-0.25,0.82-0.25s0.64,0.08,0.84,0.25s0.29,0.41,0.29,0.72c0,0.32-0.1,0.57-0.29,0.74
			C38.91,246.11,38.63,246.2,38.26,246.2z M38.26,253.84c-0.3,0-0.54-0.09-0.71-0.28s-0.26-0.45-0.26-0.79v-4.46
			c0-0.35,0.09-0.61,0.26-0.79s0.41-0.27,0.71-0.27c0.32,0,0.57,0.09,0.73,0.27s0.25,0.44,0.25,0.79v4.46c0,0.34-0.08,0.6-0.25,0.79
			C38.84,253.75,38.59,253.84,38.26,253.84z"/>
		<path class="st3" d="M42.2,253.84c-0.3,0-0.54-0.08-0.71-0.25s-0.26-0.41-0.26-0.73v-4.62c0-0.32,0.08-0.57,0.25-0.73
			s0.41-0.25,0.72-0.25c0.3,0,0.54,0.08,0.7,0.25s0.25,0.41,0.25,0.73v0.74l-0.14-0.42c0.19-0.43,0.49-0.77,0.88-1
			s0.85-0.34,1.34-0.34c0.52,0,0.94,0.1,1.27,0.29c0.33,0.2,0.57,0.49,0.73,0.89s0.25,0.9,0.25,1.51v2.94
			c0,0.32-0.08,0.57-0.25,0.73s-0.41,0.25-0.73,0.25c-0.3,0-0.54-0.08-0.72-0.25s-0.27-0.41-0.27-0.73v-2.86
			c0-0.44-0.08-0.76-0.24-0.96c-0.16-0.19-0.4-0.29-0.72-0.29c-0.42,0-0.75,0.13-0.99,0.39c-0.25,0.26-0.37,0.61-0.37,1.04v2.68
			C43.19,253.51,42.86,253.84,42.2,253.84z"/>
		<path class="st3" d="M51.9,253.87c-0.55,0-1.04-0.13-1.46-0.4s-0.75-0.65-0.98-1.15s-0.35-1.1-0.35-1.78s0.12-1.27,0.35-1.77
			c0.23-0.49,0.56-0.88,0.98-1.14s0.91-0.4,1.46-0.4c0.5,0,0.95,0.12,1.34,0.36s0.65,0.56,0.78,0.95h-0.14v-3.08
			c0-0.33,0.08-0.58,0.25-0.74c0.16-0.16,0.41-0.25,0.73-0.25c0.31,0,0.55,0.08,0.73,0.25c0.17,0.17,0.26,0.41,0.26,0.74v7.4
			c0,0.32-0.08,0.57-0.25,0.73s-0.41,0.25-0.71,0.25c-0.32,0-0.57-0.08-0.73-0.25s-0.25-0.41-0.25-0.73v-0.88l0.14,0.51
			c-0.12,0.42-0.38,0.76-0.77,1.01C52.87,253.74,52.41,253.87,51.9,253.87z M52.49,252.41c0.29,0,0.53-0.07,0.74-0.2
			c0.21-0.13,0.37-0.34,0.49-0.62c0.12-0.28,0.18-0.63,0.18-1.05c0-0.63-0.13-1.1-0.39-1.4c-0.26-0.3-0.6-0.45-1.03-0.45
			c-0.28,0-0.52,0.06-0.73,0.19s-0.38,0.33-0.49,0.61c-0.12,0.28-0.18,0.62-0.18,1.04c0,0.64,0.13,1.11,0.39,1.42
			C51.73,252.26,52.07,252.41,52.49,252.41z"/>
		<path class="st3" d="M63.61,256.18c-0.23,0-0.42-0.06-0.56-0.17s-0.23-0.27-0.26-0.47c-0.03-0.19,0-0.4,0.1-0.62l0.87-1.91v0.79
			l-2.3-5.28c-0.09-0.23-0.11-0.44-0.08-0.63s0.13-0.35,0.29-0.47s0.38-0.18,0.66-0.18c0.24,0,0.44,0.05,0.58,0.16
			c0.14,0.1,0.27,0.32,0.37,0.64l1.55,3.87h-0.4l1.57-3.9c0.12-0.29,0.26-0.5,0.41-0.6c0.15-0.11,0.36-0.16,0.62-0.16
			c0.23,0,0.4,0.06,0.54,0.18c0.13,0.12,0.22,0.27,0.25,0.46s-0.01,0.4-0.11,0.62l-3.05,6.93c-0.13,0.29-0.28,0.49-0.44,0.59
			C64.06,256.13,63.86,256.18,63.61,256.18z"/>
		<path class="st3" d="M72.32,253.87c-0.68,0-1.28-0.13-1.78-0.4c-0.5-0.27-0.9-0.65-1.18-1.15s-0.42-1.09-0.42-1.77
			c0-0.51,0.08-0.97,0.23-1.38c0.16-0.41,0.38-0.76,0.68-1.05c0.3-0.29,0.66-0.51,1.08-0.66c0.42-0.15,0.88-0.23,1.38-0.23
			c0.68,0,1.28,0.13,1.79,0.4c0.51,0.27,0.9,0.65,1.18,1.15s0.42,1.09,0.42,1.76c0,0.51-0.08,0.97-0.24,1.39
			c-0.16,0.42-0.39,0.77-0.68,1.05c-0.29,0.29-0.65,0.5-1.07,0.66S72.84,253.87,72.32,253.87z M72.32,252.41
			c0.29,0,0.53-0.07,0.74-0.2c0.21-0.13,0.37-0.34,0.49-0.62c0.12-0.28,0.18-0.63,0.18-1.05c0-0.63-0.13-1.1-0.39-1.4
			c-0.26-0.3-0.6-0.45-1.03-0.45c-0.28,0-0.52,0.06-0.73,0.19s-0.38,0.33-0.49,0.61c-0.12,0.28-0.18,0.62-0.18,1.04
			c0,0.64,0.13,1.11,0.39,1.42C71.57,252.26,71.91,252.41,72.32,252.41z"/>
		<path class="st3" d="M79.71,253.87c-0.54,0-0.98-0.1-1.34-0.3c-0.36-0.2-0.62-0.5-0.79-0.89s-0.25-0.89-0.25-1.49v-2.95
			c0-0.33,0.08-0.58,0.25-0.74s0.41-0.25,0.72-0.25s0.55,0.08,0.73,0.25c0.17,0.17,0.26,0.41,0.26,0.74v2.99
			c0,0.37,0.08,0.65,0.23,0.84c0.16,0.19,0.4,0.29,0.73,0.29c0.38,0,0.69-0.13,0.93-0.4c0.24-0.26,0.36-0.61,0.36-1.05v-2.68
			c0-0.33,0.09-0.58,0.26-0.74c0.17-0.16,0.41-0.25,0.71-0.25c0.32,0,0.57,0.08,0.73,0.25c0.17,0.17,0.25,0.41,0.25,0.74v4.62
			c0,0.66-0.32,0.99-0.95,0.99c-0.3,0-0.54-0.08-0.72-0.25s-0.26-0.41-0.26-0.73v-0.88l0.21,0.52c-0.19,0.45-0.46,0.79-0.82,1.03
			C80.61,253.75,80.19,253.87,79.71,253.87z"/>
		<path class="st3" d="M86.48,253.84c-0.33,0-0.58-0.08-0.75-0.25s-0.26-0.41-0.26-0.73v-4.62c0-0.32,0.08-0.57,0.25-0.73
			s0.41-0.25,0.72-0.25c0.3,0,0.54,0.08,0.7,0.25c0.16,0.17,0.25,0.41,0.25,0.73v0.68h-0.13c0.1-0.52,0.32-0.92,0.68-1.21
			c0.36-0.29,0.83-0.45,1.4-0.48c0.21-0.02,0.37,0.04,0.49,0.16c0.12,0.13,0.18,0.34,0.2,0.63c0.01,0.26-0.05,0.47-0.18,0.62
			c-0.13,0.16-0.34,0.25-0.63,0.29l-0.3,0.03c-0.49,0.04-0.86,0.19-1.1,0.43c-0.24,0.24-0.36,0.59-0.36,1.05v2.42
			c0,0.32-0.08,0.57-0.25,0.73S86.81,253.84,86.48,253.84z"/>
		<path class="st3" d="M96.33,256.18c-0.3,0-0.54-0.08-0.71-0.25c-0.17-0.16-0.26-0.41-0.26-0.74v-6.96c0-0.32,0.08-0.57,0.25-0.73
			s0.41-0.25,0.72-0.25c0.3,0,0.54,0.08,0.71,0.25s0.25,0.41,0.25,0.73v0.88l-0.14-0.51c0.13-0.42,0.39-0.76,0.79-1.01
			c0.39-0.25,0.85-0.38,1.36-0.38c0.55,0,1.04,0.13,1.47,0.4c0.42,0.27,0.75,0.65,0.98,1.14s0.34,1.08,0.34,1.77
			s-0.12,1.28-0.35,1.78c-0.23,0.5-0.56,0.89-0.98,1.15s-0.91,0.4-1.47,0.4c-0.5,0-0.95-0.12-1.34-0.36s-0.65-0.56-0.78-0.95h0.14
			v2.64c0,0.33-0.08,0.58-0.25,0.74C96.9,256.1,96.65,256.18,96.33,256.18z M98.71,252.41c0.28,0,0.52-0.07,0.73-0.2
			c0.21-0.13,0.38-0.34,0.49-0.62c0.12-0.28,0.18-0.63,0.18-1.05c0-0.63-0.13-1.1-0.39-1.4c-0.26-0.3-0.6-0.45-1.01-0.45
			c-0.28,0-0.52,0.06-0.73,0.19s-0.38,0.33-0.49,0.61c-0.12,0.28-0.18,0.62-0.18,1.04c0,0.64,0.13,1.11,0.39,1.42
			C97.96,252.26,98.3,252.41,98.71,252.41z"/>
		<path class="st3" d="M107.06,253.87c-0.75,0-1.4-0.13-1.94-0.4s-0.96-0.65-1.25-1.15s-0.44-1.09-0.44-1.77
			c0-0.66,0.14-1.23,0.42-1.72s0.67-0.88,1.16-1.16c0.49-0.29,1.05-0.43,1.68-0.43c0.48,0,0.9,0.08,1.27,0.23
			c0.37,0.15,0.69,0.37,0.96,0.65s0.47,0.62,0.61,1.03c0.14,0.4,0.21,0.85,0.21,1.34c0,0.17-0.05,0.29-0.16,0.37
			s-0.26,0.12-0.45,0.12h-4.07v-1.01h3.26l-0.21,0.18c0-0.35-0.05-0.65-0.16-0.89c-0.1-0.24-0.25-0.42-0.45-0.55
			c-0.2-0.12-0.44-0.19-0.72-0.19c-0.32,0-0.59,0.07-0.82,0.22s-0.4,0.36-0.52,0.64c-0.12,0.28-0.18,0.62-0.18,1.01v0.1
			c0,0.66,0.15,1.14,0.46,1.46c0.3,0.31,0.76,0.47,1.38,0.47c0.21,0,0.44-0.03,0.71-0.08s0.52-0.13,0.76-0.25
			c0.21-0.09,0.39-0.12,0.53-0.09c0.15,0.04,0.27,0.11,0.36,0.21c0.09,0.11,0.14,0.24,0.15,0.38c0.01,0.15-0.02,0.29-0.1,0.44
			c-0.07,0.14-0.2,0.26-0.37,0.36c-0.3,0.17-0.64,0.3-1.01,0.37C107.75,253.83,107.4,253.87,107.06,253.87z"/>
		<path class="st3" d="M112.35,253.84c-0.33,0-0.58-0.08-0.75-0.25s-0.26-0.41-0.26-0.73v-4.62c0-0.32,0.08-0.57,0.25-0.73
			s0.41-0.25,0.72-0.25c0.3,0,0.54,0.08,0.7,0.25c0.16,0.17,0.25,0.41,0.25,0.73v0.68h-0.13c0.1-0.52,0.32-0.92,0.68-1.21
			c0.36-0.29,0.83-0.45,1.4-0.48c0.21-0.02,0.37,0.04,0.49,0.16c0.12,0.13,0.18,0.34,0.2,0.63c0.01,0.26-0.05,0.47-0.18,0.62
			c-0.13,0.16-0.34,0.25-0.63,0.29l-0.3,0.03c-0.49,0.04-0.86,0.19-1.1,0.43c-0.24,0.24-0.36,0.59-0.36,1.05v2.42
			c0,0.32-0.08,0.57-0.25,0.73S112.68,253.84,112.35,253.84z"/>
		<path class="st3" d="M118.64,253.84c-0.32,0-0.57-0.08-0.73-0.25s-0.25-0.41-0.25-0.73v-4.04h-0.47c-0.24,0-0.43-0.06-0.56-0.19
			c-0.13-0.12-0.2-0.3-0.2-0.54s0.06-0.41,0.2-0.53c0.13-0.12,0.32-0.18,0.56-0.18h1.04l-0.57,0.52v-0.42c0-0.92,0.23-1.61,0.7-2.07
			c0.47-0.46,1.15-0.74,2.04-0.84l0.42-0.03c0.23-0.03,0.4,0,0.53,0.09s0.22,0.2,0.27,0.34c0.05,0.14,0.06,0.28,0.03,0.42
			s-0.09,0.27-0.19,0.38c-0.1,0.11-0.22,0.17-0.36,0.18l-0.18,0.01c-0.47,0.03-0.8,0.15-1,0.33c-0.2,0.19-0.3,0.47-0.3,0.84v0.46
			l-0.23-0.21h1.17c0.24,0,0.43,0.06,0.56,0.18s0.19,0.3,0.19,0.53s-0.06,0.41-0.19,0.54c-0.13,0.13-0.32,0.19-0.56,0.19h-0.94v4.04
			C119.62,253.51,119.29,253.84,118.64,253.84z"/>
		<path class="st3" d="M125.91,253.87c-0.75,0-1.4-0.13-1.94-0.4s-0.96-0.65-1.25-1.15s-0.44-1.09-0.44-1.77
			c0-0.66,0.14-1.23,0.42-1.72s0.67-0.88,1.16-1.16c0.49-0.29,1.05-0.43,1.68-0.43c0.48,0,0.9,0.08,1.27,0.23
			c0.37,0.15,0.69,0.37,0.96,0.65s0.47,0.62,0.61,1.03c0.14,0.4,0.21,0.85,0.21,1.34c0,0.17-0.05,0.29-0.16,0.37
			s-0.26,0.12-0.45,0.12h-4.07v-1.01h3.26l-0.21,0.18c0-0.35-0.05-0.65-0.16-0.89c-0.1-0.24-0.25-0.42-0.45-0.55
			c-0.2-0.12-0.44-0.19-0.72-0.19c-0.32,0-0.59,0.07-0.82,0.22s-0.4,0.36-0.52,0.64c-0.12,0.28-0.18,0.62-0.18,1.01v0.1
			c0,0.66,0.15,1.14,0.46,1.46c0.3,0.31,0.76,0.47,1.38,0.47c0.21,0,0.44-0.03,0.71-0.08s0.52-0.13,0.76-0.25
			c0.21-0.09,0.39-0.12,0.53-0.09c0.15,0.04,0.27,0.11,0.36,0.21c0.09,0.11,0.14,0.24,0.15,0.38c0.01,0.15-0.02,0.29-0.1,0.44
			c-0.07,0.14-0.2,0.26-0.37,0.36c-0.3,0.17-0.64,0.3-1.01,0.37C126.6,253.83,126.25,253.87,125.91,253.87z"/>
		<path class="st3" d="M133.29,253.87c-0.69,0-1.3-0.13-1.81-0.4c-0.51-0.27-0.91-0.65-1.19-1.16c-0.28-0.5-0.42-1.1-0.42-1.78
			c0-0.51,0.08-0.97,0.23-1.38c0.16-0.41,0.38-0.75,0.68-1.04c0.3-0.29,0.66-0.5,1.09-0.66c0.42-0.15,0.9-0.23,1.42-0.23
			c0.27,0,0.56,0.03,0.86,0.1c0.31,0.07,0.61,0.17,0.9,0.32c0.16,0.1,0.28,0.21,0.34,0.35s0.09,0.28,0.07,0.44s-0.07,0.29-0.16,0.4
			c-0.09,0.12-0.21,0.2-0.34,0.23s-0.29,0.02-0.47-0.07c-0.16-0.09-0.34-0.15-0.51-0.2c-0.18-0.05-0.34-0.07-0.5-0.07
			c-0.26,0-0.49,0.04-0.69,0.12s-0.37,0.2-0.5,0.35c-0.13,0.15-0.24,0.34-0.31,0.57c-0.07,0.23-0.11,0.48-0.11,0.77
			c0,0.57,0.14,1.02,0.42,1.36c0.28,0.33,0.68,0.5,1.19,0.5c0.16,0,0.32-0.02,0.49-0.06s0.35-0.11,0.52-0.21
			c0.17-0.09,0.33-0.11,0.46-0.07s0.25,0.12,0.34,0.24c0.09,0.12,0.14,0.25,0.15,0.4s-0.02,0.3-0.08,0.44s-0.18,0.25-0.34,0.33
			c-0.29,0.16-0.58,0.26-0.88,0.33C133.85,253.84,133.56,253.87,133.29,253.87z"/>
		<path class="st3" d="M139.99,253.87c-0.6,0-1.1-0.1-1.5-0.29c-0.4-0.19-0.7-0.48-0.89-0.86s-0.29-0.86-0.29-1.44v-2.46h-0.57
			c-0.23,0-0.42-0.06-0.55-0.19c-0.13-0.12-0.2-0.3-0.2-0.54s0.07-0.41,0.2-0.53c0.13-0.12,0.32-0.18,0.55-0.18h0.57v-1
			c0-0.33,0.08-0.58,0.25-0.74s0.41-0.25,0.72-0.25c0.32,0,0.57,0.08,0.73,0.25c0.17,0.17,0.25,0.41,0.25,0.74v1h1.21
			c0.25,0,0.44,0.06,0.57,0.18s0.19,0.3,0.19,0.53s-0.06,0.41-0.19,0.54c-0.13,0.13-0.32,0.19-0.57,0.19h-1.21v2.38
			c0,0.36,0.08,0.63,0.25,0.81s0.43,0.27,0.81,0.27c0.13,0,0.25-0.01,0.37-0.04s0.21-0.04,0.29-0.04c0.12-0.01,0.22,0.03,0.31,0.11
			s0.12,0.26,0.12,0.54c0,0.22-0.03,0.4-0.1,0.56s-0.19,0.26-0.37,0.32c-0.11,0.04-0.27,0.07-0.47,0.1S140.12,253.87,139.99,253.87z
			"/>
		<path class="st3" d="M148.11,253.84c-0.32,0-0.57-0.08-0.73-0.25s-0.25-0.41-0.25-0.73v-4.04h-0.47c-0.24,0-0.43-0.06-0.56-0.19
			c-0.13-0.12-0.2-0.3-0.2-0.54s0.06-0.41,0.2-0.53c0.13-0.12,0.32-0.18,0.56-0.18h1.04l-0.57,0.52v-0.42c0-0.92,0.23-1.61,0.7-2.07
			s1.15-0.74,2.04-0.84l0.42-0.03c0.23-0.03,0.4,0,0.53,0.09s0.22,0.2,0.27,0.34s0.06,0.28,0.03,0.42s-0.09,0.27-0.19,0.38
			s-0.22,0.17-0.36,0.18l-0.18,0.01c-0.47,0.03-0.8,0.15-1,0.33c-0.2,0.19-0.3,0.47-0.3,0.84v0.46l-0.23-0.21h1.17
			c0.24,0,0.43,0.06,0.56,0.18s0.19,0.3,0.19,0.53s-0.06,0.41-0.19,0.54c-0.13,0.13-0.32,0.19-0.56,0.19h-0.94v4.04
			C149.09,253.51,148.76,253.84,148.11,253.84z"/>
		<path class="st3" d="M153.08,253.84c-0.33,0-0.58-0.08-0.75-0.25s-0.26-0.41-0.26-0.73v-4.62c0-0.32,0.08-0.57,0.25-0.73
			s0.41-0.25,0.72-0.25c0.3,0,0.54,0.08,0.7,0.25s0.25,0.41,0.25,0.73v0.68h-0.13c0.1-0.52,0.32-0.92,0.68-1.21
			c0.36-0.29,0.83-0.45,1.4-0.48c0.21-0.02,0.37,0.04,0.49,0.16c0.12,0.13,0.18,0.34,0.2,0.63c0.01,0.26-0.05,0.47-0.18,0.62
			c-0.13,0.16-0.34,0.25-0.63,0.29l-0.3,0.03c-0.49,0.04-0.86,0.19-1.1,0.43c-0.24,0.24-0.36,0.59-0.36,1.05v2.42
			c0,0.32-0.08,0.57-0.25,0.73S153.41,253.84,153.08,253.84z"/>
		<path class="st3" d="M158.86,246.2c-0.36,0-0.63-0.09-0.82-0.26s-0.29-0.42-0.29-0.74c0-0.31,0.1-0.55,0.29-0.72
			c0.19-0.17,0.46-0.25,0.82-0.25s0.64,0.08,0.84,0.25s0.29,0.41,0.29,0.72c0,0.32-0.1,0.57-0.29,0.74
			C159.51,246.11,159.23,246.2,158.86,246.2z M158.86,253.84c-0.3,0-0.54-0.09-0.71-0.28c-0.17-0.19-0.26-0.45-0.26-0.79v-4.46
			c0-0.35,0.09-0.61,0.26-0.79s0.41-0.27,0.71-0.27c0.32,0,0.57,0.09,0.73,0.27s0.25,0.44,0.25,0.79v4.46c0,0.34-0.08,0.6-0.25,0.79
			C159.44,253.75,159.19,253.84,158.86,253.84z"/>
		<path class="st3" d="M165.14,253.87c-0.75,0-1.4-0.13-1.94-0.4s-0.96-0.65-1.25-1.15s-0.44-1.09-0.44-1.77
			c0-0.66,0.14-1.23,0.42-1.72s0.67-0.88,1.16-1.16c0.49-0.29,1.05-0.43,1.68-0.43c0.48,0,0.9,0.08,1.27,0.23
			c0.37,0.15,0.69,0.37,0.96,0.65s0.47,0.62,0.61,1.03c0.14,0.4,0.21,0.85,0.21,1.34c0,0.17-0.05,0.29-0.16,0.37
			s-0.26,0.12-0.45,0.12h-4.07v-1.01h3.26l-0.21,0.18c0-0.35-0.05-0.65-0.16-0.89c-0.1-0.24-0.25-0.42-0.45-0.55
			c-0.2-0.12-0.44-0.19-0.72-0.19c-0.32,0-0.59,0.07-0.82,0.22c-0.23,0.15-0.4,0.36-0.52,0.64c-0.12,0.28-0.18,0.62-0.18,1.01v0.1
			c0,0.66,0.15,1.14,0.46,1.46c0.3,0.31,0.76,0.47,1.38,0.47c0.21,0,0.44-0.03,0.71-0.08s0.52-0.13,0.76-0.25
			c0.21-0.09,0.39-0.12,0.53-0.09c0.15,0.04,0.27,0.11,0.36,0.21c0.09,0.11,0.14,0.24,0.15,0.38c0.01,0.15-0.02,0.29-0.1,0.44
			c-0.07,0.14-0.2,0.26-0.37,0.36c-0.3,0.17-0.64,0.3-1.01,0.37C165.84,253.83,165.48,253.87,165.14,253.87z"/>
		<path class="st3" d="M170.39,253.84c-0.3,0-0.54-0.08-0.71-0.25c-0.17-0.17-0.26-0.41-0.26-0.73v-4.62c0-0.32,0.08-0.57,0.25-0.73
			s0.41-0.25,0.72-0.25c0.3,0,0.54,0.08,0.7,0.25s0.25,0.41,0.25,0.73v0.74l-0.14-0.42c0.19-0.43,0.49-0.77,0.88-1
			s0.85-0.34,1.34-0.34c0.52,0,0.94,0.1,1.27,0.29c0.33,0.2,0.57,0.49,0.73,0.89s0.25,0.9,0.25,1.51v2.94
			c0,0.32-0.08,0.57-0.25,0.73s-0.41,0.25-0.73,0.25c-0.3,0-0.54-0.08-0.72-0.25c-0.18-0.17-0.27-0.41-0.27-0.73v-2.86
			c0-0.44-0.08-0.76-0.24-0.96c-0.16-0.19-0.4-0.29-0.72-0.29c-0.42,0-0.75,0.13-0.99,0.39c-0.25,0.26-0.37,0.61-0.37,1.04v2.68
			C171.38,253.51,171.05,253.84,170.39,253.84z"/>
		<path class="st3" d="M180.09,253.87c-0.55,0-1.04-0.13-1.46-0.4s-0.75-0.65-0.98-1.15s-0.35-1.1-0.35-1.78s0.12-1.27,0.35-1.77
			c0.23-0.49,0.56-0.88,0.98-1.14s0.91-0.4,1.46-0.4c0.5,0,0.95,0.12,1.34,0.36s0.65,0.56,0.78,0.95h-0.14v-3.08
			c0-0.33,0.08-0.58,0.25-0.74c0.16-0.16,0.41-0.25,0.73-0.25c0.31,0,0.55,0.08,0.73,0.25c0.17,0.17,0.26,0.41,0.26,0.74v7.4
			c0,0.32-0.08,0.57-0.25,0.73s-0.41,0.25-0.71,0.25c-0.32,0-0.57-0.08-0.73-0.25s-0.25-0.41-0.25-0.73v-0.88l0.14,0.51
			c-0.12,0.42-0.38,0.76-0.77,1.01C181.06,253.74,180.6,253.87,180.09,253.87z M180.68,252.41c0.29,0,0.53-0.07,0.74-0.2
			c0.21-0.13,0.37-0.34,0.49-0.62c0.12-0.28,0.18-0.63,0.18-1.05c0-0.63-0.13-1.1-0.39-1.4c-0.26-0.3-0.6-0.45-1.03-0.45
			c-0.28,0-0.52,0.06-0.73,0.19s-0.38,0.33-0.49,0.61c-0.12,0.28-0.18,0.62-0.18,1.04c0,0.64,0.13,1.11,0.39,1.42
			C179.92,252.26,180.26,252.41,180.68,252.41z"/>
		<path class="st3" d="M186.94,253.8c-0.35,0-0.62-0.1-0.83-0.31c-0.2-0.2-0.31-0.47-0.31-0.81c0-0.32,0.1-0.58,0.31-0.79
			c0.2-0.2,0.48-0.31,0.83-0.31s0.62,0.1,0.81,0.31c0.19,0.2,0.29,0.47,0.29,0.79c0,0.34-0.1,0.61-0.29,0.81
			C187.56,253.7,187.29,253.8,186.94,253.8z M186.94,250.92c-0.2,0-0.36-0.06-0.47-0.18s-0.18-0.29-0.21-0.52l-0.43-4.47
			c-0.04-0.38,0.03-0.69,0.23-0.92s0.49-0.35,0.87-0.35c0.38,0,0.67,0.12,0.85,0.35c0.19,0.23,0.26,0.54,0.21,0.92l-0.42,4.47
			c-0.03,0.23-0.1,0.4-0.21,0.52C187.27,250.86,187.12,250.92,186.94,250.92z"/>
	</g>
</g>
<g class="st0">
	<path class="st1" d="M173,359.54c1.54,7.06,13.27,13.37,13.27,13.37c3.98-15.66-5.37-29.01-5.37-29.01
		c-6.27,0.76-13.02,7.6-13.02,7.6c-12.99-9.58-26.64,0-26.64,0s-5.97-6.84-12.24-7.6c0,0-9.35,13.36-5.37,29.01
		c0,0,5.1-2.75,9.02-6.64c2.02-2.01,3.73-4.33,4.25-6.73"/>
	<circle class="st2" cx="145.51" cy="363.65" r="1.57"/>
	<circle class="st2" cx="165.1" cy="363.65" r="1.57"/>
	<ellipse class="st2" cx="155.71" cy="366.78" rx="3.15" ry="1.57"/>
	<path class="st1" d="M134.65,364c0,0-5.99,20.06,21.04,19.21S175.23,364,175.23,364"/>
	<path class="st1" d="M165.32,371.62c-5.49,6.27-10.19,0-10.19,0h-0.22c-5.49,6.27-9.4,0-9.4,0"/>
	<path class="st2" d="M150.76,374.41c0,0,4.15,5.98,8.87-0.04L155,372L150.76,374.41z"/>
</g>
<path class="st4" d="M254.11,270.38"/>
<g class="st0">
	<path class="st5" d="M281.53,258.31c1.09,4.99,7.26,9.6,10.79,11.88c1.23,0.79,2.84,0.05,3.07-1.39
		c1.84-11.66-3.23-21.6-5.21-24.93c-0.45-0.75-1.33-1.14-2.17-0.93c-4.26,1.08-8.49,4.5-10.46,6.26c-0.67,0.6-1.65,0.69-2.4,0.2
		c-3.82-2.46-7.66-3.34-11.15-3.39c-5.82-0.07-10.69,2.2-12.92,3.46c-0.78,0.44-1.74,0.31-2.37-0.31c-1.79-1.77-5.6-5.14-9.75-6.21
		c-0.85-0.22-1.73,0.17-2.18,0.93c-1.98,3.34-7.04,13.27-5.2,24.93c0.23,1.43,1.84,2.19,3.06,1.4c1.83-1.18,4.37-2.99,6.55-5.16
		c2.02-2.01,3.73-4.33,4.25-6.73"/>
	<ellipse class="st2" cx="263.48" cy="270.55" rx="3.15" ry="1.57"/>
	<path class="st5" d="M243.25,262.77c0,0-5.99,20.06,21.04,19.21s19.54-19.21,19.54-19.21"/>
	<path class="st5" d="M263.51,270.38"/>
	<path class="st5" d="M273.91,270.38"/>
	<path class="st2" d="M264.5,275.02"/>
	<g class="st2">
		<ellipse cx="254.22" cy="263.38" rx="1.78" ry="1.61"/>
		<g>
			<ellipse cx="272.88" cy="263.38" rx="1.78" ry="1.61"/>
		</g>
	</g>
</g>
<g class="st0">
	<path class="st6" d="M88.66,59.37c0,0-5.98,21.06,20.99,20.21s19.5-20.21,19.5-20.21l-0.46-2.13c0.52,2.4,2.23,4.72,4.25,6.73
		c2.18,2.17,4.72,3.98,6.55,5.16c1.22,0.79,2.83,0.04,3.06-1.4c1.84-11.66-3.22-21.59-5.2-24.93c-0.45-0.75-1.33-1.15-2.18-0.93
		c-4.15,1.08-7.97,4.44-9.75,6.21c-0.63,0.63-1.6,0.75-2.37,0.31c-2.23-1.25-7.1-3.53-12.92-3.46h-2.23
		c-5.82-0.07-10.69,2.2-12.92,3.46c-0.78,0.44-1.74,0.31-2.37-0.31c-1.79-1.77-5.6-5.14-9.75-6.21c-0.85-0.22-1.73,0.17-2.18,0.93
		c-1.98,3.34-7.04,13.27-5.2,24.93c0.23,1.43,1.84,2.19,3.06,1.4c1.83-1.18,4.37-2.99,6.55-5.16c2.02-2.01,3.73-4.33,4.25-6.73"/>
	<circle class="st2" cx="100" cy="60.95" r="2"/>
	<circle class="st2" cx="118" cy="60.95" r="2"/>
	<ellipse class="st2" cx="108.95" cy="65.7" rx="3" ry="1.75"/>
	<path class="st5" d="M131.35,61.92"/>
</g>
<g>
	<g>
		<g>
			<g>
				<path class="st7" d="M75.76,90.3c-1.01,0-1.79-0.28-2.34-0.84c-0.55-0.56-0.82-1.36-0.82-2.4V63.98c0-1.07,0.27-1.87,0.82-2.42
					c0.55-0.55,1.33-0.82,2.34-0.82c1.04,0,1.83,0.27,2.38,0.82c0.55,0.55,0.82,1.35,0.82,2.42v23.08c0,1.04-0.27,1.84-0.8,2.4
					C77.64,90.02,76.83,90.3,75.76,90.3z"/>
				<path class="st7" d="M88.07,72.26c-0.38,0.52-0.81,0.81-1.27,0.86c-0.46,0.06-0.87-0.04-1.21-0.29s-0.53-0.59-0.57-1.02
					c-0.04-0.44,0.16-0.93,0.59-1.48c0.6-0.74,1-1.48,1.21-2.21s0.31-1.38,0.31-1.93l0.25,1.64c-1.09,0-1.98-0.31-2.67-0.94
					c-0.68-0.63-1.02-1.49-1.02-2.58c0-1.04,0.31-1.87,0.94-2.5c0.63-0.63,1.49-0.94,2.58-0.94c1.09,0,1.95,0.37,2.58,1.11
					c0.63,0.74,0.94,1.79,0.94,3.16c0,0.71-0.06,1.44-0.18,2.19s-0.38,1.53-0.76,2.34C89.4,70.46,88.83,71.33,88.07,72.26z"/>
				<path class="st7" d="M107.43,90.3c-0.88,0-1.59-0.2-2.15-0.59c-0.56-0.4-1.03-0.99-1.41-1.78l-10.3-22.97
					c-0.36-0.85-0.46-1.58-0.33-2.21c0.14-0.63,0.47-1.12,1-1.48c0.53-0.35,1.15-0.53,1.87-0.53c0.98,0,1.71,0.21,2.19,0.61
					c0.48,0.41,0.88,1.01,1.21,1.8l9.06,20.99h-2.05l9.02-20.99c0.38-0.79,0.81-1.39,1.29-1.8s1.17-0.61,2.07-0.61
					c0.71,0,1.31,0.18,1.8,0.53c0.49,0.36,0.8,0.85,0.92,1.48c0.12,0.63-0.01,1.37-0.39,2.21l-10.33,22.96
					c-0.33,0.79-0.77,1.39-1.31,1.78C109.04,90.1,108.32,90.3,107.43,90.3z"/>
				<path class="st7" d="M128.58,89.97c-1.07,0-1.89-0.29-2.46-0.86s-0.86-1.41-0.86-2.5V64.43c0-1.09,0.29-1.93,0.86-2.5
					s1.39-0.86,2.46-0.86h14.31c0.82,0,1.44,0.21,1.87,0.64c0.42,0.42,0.64,1.03,0.64,1.82c0,0.82-0.21,1.44-0.64,1.87
					c-0.42,0.42-1.05,0.64-1.87,0.64h-11.52v6.76h10.62c0.85,0,1.48,0.21,1.89,0.64c0.41,0.42,0.62,1.05,0.62,1.87
					c0,0.79-0.21,1.4-0.62,1.82c-0.41,0.42-1.04,0.64-1.89,0.64h-10.62v7.26h11.52c0.82,0,1.44,0.21,1.87,0.64
					c0.42,0.42,0.64,1.05,0.64,1.87c0,0.79-0.21,1.4-0.64,1.82c-0.42,0.42-1.05,0.64-1.87,0.64h-14.31V89.97z"/>
			</g>
			<g>
				<path class="st7" d="M60.71,138.97c-1.07,0-1.89-0.29-2.46-0.86s-0.86-1.41-0.86-2.5v-22.18c0-1.09,0.29-1.93,0.86-2.5
					s1.39-0.86,2.46-0.86h9.92c2.08,0,3.83,0.31,5.25,0.92s2.51,1.48,3.28,2.6c0.76,1.12,1.15,2.45,1.15,3.98
					c0,1.72-0.49,3.18-1.48,4.39c-0.98,1.2-2.32,2.01-4.02,2.42v-0.61c1.97,0.3,3.5,1.07,4.59,2.32c1.09,1.24,1.64,2.84,1.64,4.78
					c0,2.54-0.88,4.53-2.64,5.97s-4.2,2.15-7.32,2.15H60.71V138.97z M63.5,121.92h6.03c1.58,0,2.76-0.29,3.53-0.88
					c0.76-0.59,1.15-1.47,1.15-2.64c0-1.2-0.38-2.1-1.15-2.69c-0.77-0.59-1.94-0.88-3.53-0.88H63.5V121.92z M63.5,134.22h6.77
					c1.61,0,2.8-0.31,3.57-0.92c0.76-0.61,1.15-1.55,1.15-2.81c0-1.31-0.38-2.28-1.15-2.89c-0.77-0.62-1.95-0.92-3.57-0.92H63.5
					V134.22z"/>
				<path class="st7" d="M89.21,138.97c-1.07,0-1.89-0.29-2.46-0.86s-0.86-1.41-0.86-2.5v-22.18c0-1.09,0.29-1.93,0.86-2.5
					s1.39-0.86,2.46-0.86h14.31c0.82,0,1.44,0.21,1.87,0.64c0.42,0.42,0.64,1.03,0.64,1.82c0,0.82-0.21,1.44-0.64,1.87
					c-0.42,0.42-1.05,0.64-1.87,0.64H91.99v6.76h10.62c0.85,0,1.48,0.21,1.89,0.64c0.41,0.42,0.62,1.05,0.62,1.87
					c0,0.79-0.21,1.4-0.62,1.82s-1.04,0.64-1.89,0.64H91.99v7.26h11.52c0.82,0,1.44,0.21,1.87,0.64c0.42,0.42,0.64,1.05,0.64,1.87
					c0,0.79-0.21,1.4-0.64,1.82c-0.42,0.42-1.05,0.64-1.87,0.64h-14.3V138.97z"/>
				<path class="st7" d="M114.05,138.97c-1.07,0-1.89-0.29-2.46-0.86s-0.86-1.41-0.86-2.5v-22.18c0-1.09,0.29-1.93,0.86-2.5
					s1.39-0.86,2.46-0.86h14.31c0.82,0,1.44,0.21,1.87,0.64c0.42,0.42,0.64,1.03,0.64,1.82c0,0.82-0.21,1.44-0.64,1.87
					c-0.42,0.42-1.05,0.64-1.87,0.64h-11.52v6.76h10.62c0.85,0,1.48,0.21,1.89,0.64c0.41,0.42,0.62,1.05,0.62,1.87
					c0,0.79-0.21,1.4-0.62,1.82c-0.41,0.42-1.04,0.64-1.89,0.64h-10.62v7.26h11.52c0.82,0,1.44,0.21,1.87,0.64
					c0.42,0.42,0.64,1.05,0.64,1.87c0,0.79-0.21,1.4-0.64,1.82c-0.42,0.42-1.05,0.64-1.87,0.64h-14.31
					C114.04,139,114.04,138.97,114.05,138.97z"/>
				<path class="st7" d="M138.53,139.3c-0.96,0-1.69-0.25-2.19-0.76c-0.51-0.51-0.76-1.25-0.76-2.23V112.9
					c0-1.04,0.25-1.82,0.76-2.36c0.51-0.53,1.18-0.8,2.03-0.8c0.74,0,1.3,0.14,1.7,0.41c0.4,0.27,0.85,0.72,1.37,1.35l14.39,18.37
					h-1.15v-17.18c0-0.93,0.26-1.65,0.78-2.17s1.27-0.78,2.25-0.78c0.93,0,1.65,0.26,2.15,0.78c0.51,0.52,0.76,1.24,0.76,2.17v23.7
					c0,0.9-0.23,1.61-0.7,2.13s-1.09,0.78-1.89,0.78c-0.77,0-1.37-0.14-1.82-0.43c-0.45-0.29-0.95-0.74-1.5-1.37l-14.35-18.37h1.11
					v17.18c0,0.98-0.25,1.73-0.76,2.23C140.22,139.05,139.48,139.3,138.53,139.3z"/>
			</g>
			<g>
				<path class="st7" d="M10.78,188.3c-0.77,0-1.39-0.17-1.87-0.51s-0.77-0.81-0.88-1.41c-0.11-0.6,0-1.27,0.33-2.01l10.54-23.04
					c0.44-0.9,0.96-1.56,1.58-1.97c0.61-0.41,1.3-0.61,2.07-0.61c0.79,0,1.49,0.21,2.09,0.61c0.6,0.41,1.12,1.07,1.56,1.97
					l10.54,23.04c0.35,0.77,0.48,1.44,0.39,2.03c-0.1,0.59-0.38,1.05-0.86,1.39s-1.07,0.51-1.78,0.51c-0.93,0-1.65-0.21-2.15-0.64
					c-0.51-0.42-0.95-1.1-1.33-2.03l-2.46-5.7l2.54,1.76h-17.1l2.54-1.76l-2.42,5.7c-0.44,0.93-0.88,1.61-1.31,2.03
					C12.35,188.09,11.68,188.3,10.78,188.3z M22.51,165.83l-5.29,12.55l-1.11-1.64h12.83l-1.07,1.64l-5.29-12.55H22.51z"/>
				<path class="st7" d="M44.2,187.97c-1.07,0-1.89-0.29-2.46-0.86s-0.86-1.41-0.86-2.5v-22.18c0-1.09,0.29-1.93,0.86-2.5
					s1.39-0.86,2.46-0.86h8c4.92,0,8.73,1.25,11.44,3.75s4.06,6.06,4.06,10.68c0,2.3-0.35,4.35-1.05,6.15
					c-0.7,1.8-1.71,3.32-3.03,4.55c-1.33,1.23-2.94,2.17-4.84,2.81s-4.09,0.96-6.58,0.96H44.2z M47.23,182.77h4.55
					c1.56,0,2.92-0.2,4.08-0.59c1.16-0.4,2.12-0.97,2.89-1.72c0.76-0.75,1.34-1.71,1.72-2.87c0.38-1.16,0.57-2.52,0.57-4.08
					c0-3.12-0.77-5.43-2.3-6.95s-3.85-2.28-6.97-2.28h-4.54V182.77z"/>
				<path class="st7" d="M85.98,188.38c-2.82,0-5.31-0.62-7.48-1.85s-3.85-2.97-5.02-5.21c-1.18-2.24-1.76-4.85-1.76-7.83
					c0-2.24,0.33-4.28,1-6.11s1.63-3.4,2.89-4.71s2.77-2.31,4.53-2.99c1.76-0.68,3.71-1.02,5.84-1.02c2.87,0,5.38,0.61,7.52,1.82
					c2.15,1.22,3.81,2.94,5,5.17s1.78,4.83,1.78,7.81c0,2.27-0.33,4.32-1,6.15c-0.67,1.83-1.64,3.41-2.91,4.74
					c-1.27,1.33-2.78,2.33-4.53,3.01C90.09,188.04,88.14,188.38,85.98,188.38z M85.98,183.01c1.61,0,2.99-0.38,4.12-1.15
					c1.13-0.77,2.01-1.86,2.62-3.28c0.62-1.42,0.92-3.12,0.92-5.08c0-3.01-0.68-5.34-2.03-6.99s-3.23-2.48-5.64-2.48
					c-1.59,0-2.95,0.37-4.1,1.11s-2.02,1.81-2.62,3.22c-0.6,1.41-0.9,3.12-0.9,5.15c0,2.98,0.68,5.31,2.03,6.99
					S83.6,183.01,85.98,183.01z"/>
				<path class="st7" d="M108.36,188.3c-1.01,0-1.79-0.28-2.34-0.84c-0.55-0.56-0.82-1.36-0.82-2.4v-22.75
					c0-1.07,0.28-1.87,0.84-2.42s1.35-0.82,2.36-0.82h10c3.2,0,5.68,0.82,7.44,2.46s2.64,3.9,2.64,6.76c0,2.9-0.88,5.17-2.64,6.83
					c-1.76,1.65-4.24,2.48-7.44,2.48h-6.85v7.46c0,1.04-0.27,1.84-0.8,2.4C110.23,188.02,109.43,188.3,108.36,188.3z M111.56,172.64
					h5.78c1.64,0,2.89-0.36,3.75-1.09c0.86-0.72,1.29-1.81,1.29-3.26c0-1.42-0.43-2.49-1.29-3.2c-0.86-0.71-2.11-1.07-3.75-1.07
					h-5.78V172.64z"/>
				<path class="st7" d="M142.47,188.3c-1.01,0-1.79-0.28-2.34-0.84s-0.82-1.36-0.82-2.4v-20.75h-7.22c-0.88,0-1.54-0.23-2.01-0.7
					c-0.47-0.46-0.7-1.12-0.7-1.97c0-0.82,0.23-1.46,0.7-1.91c0.46-0.45,1.13-0.68,2.01-0.68h20.83c0.85,0,1.5,0.23,1.97,0.68
					c0.46,0.45,0.7,1.09,0.7,1.91c0,0.85-0.23,1.5-0.7,1.97c-0.46,0.47-1.12,0.7-1.97,0.7h-7.26v20.75c0,1.04-0.27,1.84-0.8,2.4
					C144.34,188.02,143.54,188.3,142.47,188.3z"/>
				<path class="st7" d="M161.66,187.97c-1.07,0-1.89-0.29-2.46-0.86s-0.86-1.41-0.86-2.5v-22.18c0-1.09,0.29-1.93,0.86-2.5
					s1.39-0.86,2.46-0.86h14.31c0.82,0,1.44,0.21,1.87,0.64c0.42,0.42,0.64,1.03,0.64,1.82c0,0.82-0.21,1.44-0.64,1.87
					c-0.42,0.42-1.05,0.64-1.87,0.64h-11.52v6.76h10.62c0.85,0,1.48,0.21,1.89,0.64c0.41,0.42,0.62,1.05,0.62,1.87
					c0,0.79-0.21,1.4-0.62,1.82c-0.41,0.42-1.04,0.64-1.89,0.64h-10.62v7.26h11.52c0.82,0,1.44,0.21,1.87,0.64
					c0.42,0.42,0.64,1.05,0.64,1.87c0,0.79-0.21,1.4-0.64,1.82c-0.42,0.42-1.05,0.64-1.87,0.64h-14.31V187.97z"/>
				<path class="st7" d="M186.51,187.97c-1.07,0-1.89-0.29-2.46-0.86s-0.86-1.41-0.86-2.5v-22.18c0-1.09,0.29-1.93,0.86-2.5
					s1.39-0.86,2.46-0.86h8c4.92,0,8.73,1.25,11.44,3.75s4.06,6.06,4.06,10.68c0,2.3-0.35,4.35-1.05,6.15
					c-0.7,1.8-1.71,3.32-3.03,4.55c-1.33,1.23-2.94,2.17-4.84,2.81s-4.09,0.96-6.58,0.96H186.51z M189.54,182.77h4.55
					c1.56,0,2.92-0.2,4.08-0.59c1.16-0.4,2.12-0.97,2.89-1.72c0.76-0.75,1.34-1.71,1.72-2.87c0.38-1.16,0.57-2.52,0.57-4.08
					c0-3.12-0.77-5.43-2.3-6.95s-3.85-2.28-6.97-2.28h-4.55L189.54,182.77L189.54,182.77z"/>
			</g>
		</g>
	</g>
	<g>
		<polyline class="st8" points="94.93,223.55 94.98,245.98 127.76,245.98 127.75,223.02 		"/>
		<polyline class="st8" points="131.09,224.8 111.37,213.68 91.59,224.8 		"/>
		<rect x="107.26" y="234.87" class="st8" width="7.71" height="11.11"/>
		<path class="st8" d="M94.98,222.72"/>
		<polygon class="st8" points="98.65,220.83 98.65,213.11 104.65,213.11 104.65,217.46 		"/>
	</g>
</g>
</svg>
